<svg width="334.93584" xmlns="http://www.w3.org/2000/svg" height="334.93505">
<defs>
<linearGradient id="svg_15">
<stop offset="0" style="stop-color:#007fff" id="svg_43"/>
<stop offset="0.392857" style="stop-color:#1c8eff" id="svg_42"/>
<stop offset="1" style="stop-color:#1a4a7a" id="svg_41"/>
</linearGradient>
<linearGradient id="svg_18">
<stop offset="0" style="stop-color:#b8ff71" id="svg_40"/>
<stop offset="1" style="stop-color:#6c0" id="svg_39"/>
</linearGradient>
<linearGradient id="svg_19">
<stop offset="0" style="stop-color:#fff;stop-opacity:.867" id="svg_45"/>
<stop offset="1" style="stop-color:#fff;stop-opacity:0" id="svg_44"/>
</linearGradient>
<radialGradient fx="298.10294" fy="315.40961" cx="298.10294" cy="315.40961" gradientTransform="matrix(1.13105, 0, 0, 1.1312, -22.1005, -17.6554)" xlink:href="#svg_15" id="svg_9" r="149.30214" gradientUnits="userSpaceOnUse"/>
<radialGradient fx="298.66852" fy="309.10764" cx="298.66852" cy="309.10764" gradientTransform="matrix(0.243622, 0.877642, -1.13444, 0.314906, 586.412, -25.658)" xlink:href="#svg_19" id="svg_5" r="130.08176" gradientUnits="userSpaceOnUse"/>
<radialGradient fx="317.86237" fy="249.47238" cx="317.86237" cy="249.47238" gradientTransform="matrix(0.922553, 0.549938, -0.612821, 1.06144, 218.044, -49.8795)" spreadMethod="reflect" xlink:href="#svg_18" id="svg_7" r="141.81195" gradientUnits="userSpaceOnUse"/>
<symbol xmlns:xlink="http://www.w3.org/1999/xlink" id="svg_55">
<g id="svg_2">
<g id="svg_3">
<path style="fill:url(#svg_9);stroke-width:.278" id="svg_8" d="m 149.3293,-.0002 c -26.4809,0 -51.3111,6.96564 -72.8817,19.0775 -0.013519,0.007538 -0.040649,-0.007599 -0.054077,0 -13.9581,7.84314 -26.4456,17.9305 -37.1702,29.67 -24.2629,26.5592 -39.2232,61.789 -39.2232,100.575 0,82.4363 66.9192,149.323 149.329,149.323 2.59366,0 5.1106,-0.247498 7.67172,-0.378357 4.12118,-0.210754 8.1835,-0.541931 12.2099,-1.08099 37.3363,-4.9964 70.3148,-23.697 93.6278,-51.0174 22.2595,-26.0855 35.7656,-59.8875 35.7656,-96.8462 0,-18.8613 -3.60748,-36.8295 -9.99493,-53.4493 -3.13272,-8.15143 -7.00476,-15.9552 -11.4536,-23.347 -19.2803,-32.0344 -50.1477,-56.1993 -86.8745,-66.69 -13.0382,-3.72418 -26.7239,-5.83679 -40.952,-5.83679 z "/>
<path style="fill:url(#svg_7);stroke-width:.278" id="svg_6" d="m 128.184,4.7022 c -0.537476,0 -1.38773,0.098083 -1.75241,0.584442 -0.35199,0.469391 -0.68988,1.07935 -1.0708,1.46027 -0.22821,0.228271 -0.467194,0.876404 -1.07092,0.876404 -0.348297,0 -1.5018,-0.187927 -1.75229,0 -0.464142,0.348328 -1.11887,0.678986 -1.26556,1.26575 -0.188385,0.753693 -0.826569,0.631866 -1.36279,1.16827 -0.302704,0.302826 -1.01059,0.861359 -1.4603,0.973816 -0.58786,0.146881 -1.10376,0.29187 -1.75235,0.292023 -0.49353,0 -1.17893,-0.118927 -1.655,0 -0.777313,0.194397 -1.18424,0.904724 -1.84958,1.07101 -0.60495,0.151276 -0.879059,0.393219 -1.16827,0.778961 -0.373596,0.498108 -1.24225,0.778809 -1.84967,0.778809 -0.932739,0 -0.973267,0.170227 -1.655,0.681549 -0.484253,0.363251 -1.33057,0.486816 -1.94708,0.486816 -0.827667,0 -2.00037,0.026581 -2.72577,0.389343 -0.493896,0.247223 -1.14871,0.34082 -1.36289,0.876495 -0.341949,0.854858 -0.62854,0.947052 -1.46027,1.36325 -0.483887,0.242004 -1.55042,0.576599 -1.94708,0.973358 -0.30246,0.302734 -0.470337,1.38034 -0.876007,1.46066 0.028625,0.017181 0.637848,0.548737 0.778717,0.584045 0.598663,0.149872 1.37744,0.097443 2.04437,0.097443 0.806061,0 1.50955,0.097412 2.33637,0.097412 0.710968,0 1.13357,-0.486877 1.75235,-0.486877 0.828674,0 1.65356,-0.000305 2.43378,0.194763 0.650421,0.162537 1.26327,0.389465 1.94693,0.389465 0.723999,0 1.13202,-0.039612 1.75238,-0.194763 0.787292,-0.196899 1.26138,-0.156708 1.655,-0.681488 0.346283,-0.461945 0.638153,-0.746307 1.07086,-1.07114 0.345825,-0.259369 1.65506,-1.65515 1.94699,-1.6553 0.725555,0 1.25586,-0.216248 1.94693,-0.389282 0.474976,-0.118774 0.493591,-1.26446 0.973633,-1.16843 0.281982,0.056458 0.860626,0.758606 1.16815,0.681549 0.2677,-0.067017 0.59903,-0.13974 0.876221,-0.097198 0.277191,0.042114 0.501678,0.253967 0.584137,0.584076 0.162201,0.648865 0.349304,0.628052 0.681366,1.07098 0.162781,0.217102 0.971252,1.17786 0.87616,1.55795 -0.11554,0.462769 -0.225769,1.23865 -0.097137,1.75241 0.128815,0.516022 0.153351,1.08597 0.389252,1.55792 0.157715,0.315521 0.603241,1.04974 0.681519,1.36304 0.152466,0.610504 0.49173,0.594238 0.77887,1.16843 0.341797,0.684052 0.171753,0.982086 -0.097351,1.65512 -0.230255,0.575775 -0.565918,1.24213 -0.389587,1.94739 0.036499,0.145447 0.061157,0.341034 0.097504,0.486877 0.108734,0.435638 0.171173,0.671509 0.292084,0.778748 0.120667,0.1073 0.290344,0.097504 0.778625,0.097504 0.574493,0 1.36636,0.003387 1.655,0.291931 0.390259,0.390533 0.778931,0.609833 0.778931,1.16843 0,0.401978 -0.222137,1.47421 -0.58429,1.65521 -0.261688,0.131012 -1.07071,0.833984 -1.07071,1.26569 0,0.542267 0.09729,1.15436 0.09729,1.65521 0,0.109406 -0.02655,0.283661 0,0.389587 0.161591,0.646454 0.299103,1.47421 0.584137,2.04459 0.224396,0.44873 0.727631,0.845459 0.973572,1.46051 0.217255,0.543396 0.238678,1.35376 0.486725,1.84998 0.274048,0.548279 0.548187,0.999329 0.778778,1.46039 0.273163,0.546356 0.437439,1.6059 0.87616,2.0448 0.516998,0.517029 0.723724,0.867737 1.16836,1.46039 0.381409,0.508881 0.865967,1.1582 1.26532,1.55777 0.354828,0.355042 0.716675,0.814087 1.16849,1.26578 0.929657,0.930023 1.49106,1.47586 2.62833,2.04471 0.582428,0.291351 1.25894,0.580719 1.84964,0.876251 0.667694,0.333954 1.23209,0.778137 1.75238,1.16843 0.591614,0.443787 1.20673,1.08551 2.04443,0.876221 0.725983,-0.18161 1.84323,-0.045441 2.53107,-0.389587 0.226257,-0.113007 0.475342,-0.186646 0.681427,-0.389221 0.206299,-0.202667 0.381287,-0.503143 0.194641,-0.876526 -0.151642,-0.303375 -0.486694,-0.796143 -0.486694,-1.26556 0,-0.797791 -0.194641,-1.51575 -0.194641,-2.33667 0,-0.581635 -0.034851,-1.02936 0.09726,-1.55801 0.104401,-0.417969 0.133942,-1.0213 0,-1.55771 -0.164856,-0.660278 -0.030945,-1.29254 -0.194641,-1.94742 -0.135925,-0.543915 -0.097351,-1.24448 -0.097351,-1.84979 0,-0.567413 -0.032318,-1.03903 0.097351,-1.5578 0.152466,-0.609985 0.097382,-1.246 0.097382,-1.84998 0,-0.517883 -0.08667,-1.09259 0.09726,-1.46051 0.187927,-0.376007 0.434021,-1.28058 0.973511,-1.4606 0.455383,-0.151672 2.04443,-0.49585 2.04443,-1.07086 0,-0.641205 -0.061005,-1.12 -0.194794,-1.65521 -0.153809,-0.615295 -0.557373,-1.22162 -0.194641,-1.9473 0.416962,-0.83432 1.23334,-1.06052 1.75238,-1.75256 0.29541,-0.394165 0.807098,-0.80722 1.26535,-1.26584 0.344482,-0.344299 1.10083,-0.643707 1.26572,-0.973572 0.213562,-0.427155 0.486786,-1.06311 0.486786,-1.55795 0,-0.348572 0.151489,-1.57938 -0.194794,-1.75256 -0.503845,-0.251831 -1.07077,-0.163361 -1.07077,-0.77887 0,-0.409149 0.441467,-1.35605 0.292053,-1.65521 -0.236115,-0.472595 -0.49942,-0.879425 -1.26566,-1.07092 -0.603729,-0.151001 -1.43396,-0.267426 -2.04428,-0.389465 -0.36969,-0.073914 -1.21075,-0.182587 -1.36291,-0.486786 -0.173401,-0.346954 -0.34256,-1.2912 -0.681427,-1.46066 -0.552307,-0.276215 -1.17615,-0.291962 -1.84979,-0.291962 -0.170197,0 -2.27081,-0.503357 -1.55743,-0.681396 0.709076,-0.177429 0.68808,-0.305725 0.973358,-0.876465 0.161896,-0.323792 0.487152,-0.875793 0.194702,-1.26569 -0.407288,-0.543488 -0.961761,-0.767273 -1.36291,-1.16849 -0.532471,-0.532684 -1.76578,-0.778839 -2.5311,-0.778839 -0.109009,0 -0.186249,0.026459 -0.292053,0 -0.431396,-0.10788 -0.833374,-0.541412 -1.16821,-0.876312 -0.496216,-0.496582 -1.39517,-0.713989 -2.04437,-0.876221 -0.491364,-0.122833 -0.792084,-0.53894 -1.36285,-0.681732 -0.563049,-0.140564 -1.16656,-0.145264 -1.75235,-0.291931 -0.764893,-0.191345 -1.58109,-0.335876 -2.33652,-0.48703 -0.280487,-0.055939 -2.26114,-0.202667 -2.14172,-0.681396 0.07312,-0.292938 0.449249,-0.973572 0.87616,-0.973572 0.585785,0 1.27774,0.114502 1.84976,0 0.74649,-0.149414 1.51242,-0.292328 2.33655,-0.292114 0.751709,0 1.50842,0.048553 2.23883,0.194702 0.912994,0.182739 1.92435,0.06723 2.8233,0.292084 0.706177,0.176544 1.79416,0.292053 2.53107,0.292053 1.03809,0 2.24722,-0.097443 3.31,-0.097443 1.6236,0 3.07382,-0.389282 4.67279,-0.389282 0.925232,0 1.24152,-0.564087 1.94708,-0.681549 0.357513,-0.059662 0.661743,-0.162781 0.778717,-0.292267 0.117157,-0.129089 0.015106,-0.263916 -0.486725,-0.389465 -0.610596,-0.152588 -1.3147,0.060638 -1.94699,-0.097321 -0.475189,-0.118774 -1.23004,-0.29187 -1.75229,-0.29187 -0.751251,0 -1.39441,-0.097443 -2.14172,-0.097443 -0.53479,0 -1.01739,0.156799 -1.55749,0.291962 -0.711639,0.17804 -1.39529,0 -2.14178,0 -0.76413,0 -1.57245,0 -2.33652,0 -1.04602,0 -2.14462,-0.194519 -3.1152,-0.194519 -0.632599,0 -1.25137,-0.097443 -1.75238,-0.097443 -0.994507,0 -2.14731,-0.002808 -2.92056,-0.389435 -0.720825,-0.360718 -1.24374,-0.578888 -2.04437,-0.779053 -0.370056,-0.09256 -1.22827,-1.07114 -1.55759,-1.07114 z  m 62.1101,1.1684 c -1.22025,0.254272 -2.4801,0.401001 -3.60202,0.681793 -1.41922,0.354706 -2.29425,1.00839 -3.60193,0.681396 -0.90979,-0.227448 -1.77383,-0.296295 -2.72586,-0.486877 0.30899,0.309204 0.1604,0.712189 -0.097351,1.07101 -0.257751,0.358978 -0.679779,0.631775 -0.876221,0.778961 -0.028717,0.021515 -2.2446,0.269165 -2.33643,0.292175 -0.527527,0.131866 -0.321991,0.486969 0,0.876251 0.322144,0.389526 0.815582,0.739471 0.973663,0.7789 1.20371,0.301147 2.72287,1.02078 3.79657,1.55777 0.461487,0.230865 0.677521,0.413086 0.778717,0.681641 0.101379,0.268402 0.088654,0.646515 0.194763,1.07108 0.209381,0.837799 0.331848,1.09076 1.07095,1.46045 0.646332,0.323273 2.09677,0.389526 2.82312,0.389526 1.17682,0 2.91708,0.583069 3.79672,0.87616 0.741486,0.247192 1.84256,1.06403 2.33637,1.55786 0.512878,0.513153 1.00207,0.816803 1.55774,1.55795 0.643433,0.858002 1.29459,1.32877 2.14163,1.75241 0.732208,0.366272 1.87692,0.354401 2.33643,0.584137 0.836151,0.418243 1.85211,1.07358 2.43387,1.65527 0.686127,0.686401 1.23148,1.32883 1.75223,1.84998 0.676392,0.676514 0.838837,1.4324 1.655,2.04465 0.835449,0.626831 1.50619,1.11682 2.14178,1.75263 0.737213,0.737274 1.3959,1.10382 2.04443,1.75241 0.510132,0.510345 1.01517,1.25171 1.84964,1.4606 1.13525,0.283813 1.8573,-0.440002 2.82324,-0.681549 0.473175,-0.118561 2.18591,1.66385 2.43362,1.85004 0.574188,0.430328 1.12866,1.28394 1.36307,1.75247 0.26651,0.533386 1.16959,1.26727 1.55759,1.65521 0.750153,0.750244 0.928345,0.902374 1.84964,1.36304 0.377625,0.188812 0.808258,0.220062 1.16809,0.097321 0.360168,-0.122314 0.608124,-0.388458 0.681549,-0.681702 0.2034,-0.81369 0.515594,-1.24768 0.292023,-2.14185 -0.131622,-0.526917 -0.049866,-1.12677 0.194641,-1.55786 0.244873,-0.431 0.643127,-0.652069 1.36307,-0.292084 0.514221,0.257446 0.841431,1.09888 1.07092,1.55792 0.323486,0.647583 0.778717,1.504 0.778717,2.43387 0,0.825623 0,1.36411 0,2.23959 0,0.354553 4.09457,2.63455 4.1861,2.72629 0.524841,0.524628 1.2323,0.854034 1.84958,1.26559 0.679474,0.453125 1.11856,0.900177 2.04434,1.36319 0.524994,0.262543 0.807953,0.749573 0.973663,1.26569 0.165527,0.516113 0.204559,1.03149 0.097351,1.46045 -0.120178,0.481232 0.28653,1.58005 0.097351,2.33682 -0.146637,0.587036 -0.254974,1.05231 -0.194702,1.3631 0.060089,0.310822 0.311218,0.447662 0.973419,0.778839 0.96048,0.480255 1.32352,1.24219 2.33643,1.84998 0.529846,0.318024 0.945465,4.03293 1.26566,4.67358 0.368866,0.737854 0.782959,1.73538 0.584076,2.53146 -0.215942,0.863922 -0.584076,1.50488 -0.584076,2.43408 0,0.662262 -0.519104,1.58987 -0.681519,2.23944 -0.154694,0.619843 -0.44931,1.27426 -0.584137,1.75253 -0.134735,0.47821 -0.109528,0.793488 0.584137,1.07101 0.901825,0.36087 2.38571,0.7789 3.30988,0.7789 0.977905,0 1.94312,0 2.92056,0 0.464386,0 0.933075,0.932068 1.36295,1.9473 0.430023,1.01523 0.79126,2.10681 0.876282,2.53153 0.179993,0.901184 0.415833,1.29205 0.97345,1.84991 0.731293,0.731628 1.80035,1.3606 2.0444,2.33673 0.278412,1.11447 0.662994,1.39969 0.194672,2.33679 -0.227844,0.456024 -1.82767,0.816559 -2.33643,1.07098 -0.730347,0.365295 -1.95785,0.498566 -3.01788,0.778992 -0.529938,0.140198 -1.0112,0.34491 -1.36301,0.584137 -0.351593,0.239105 -0.584076,0.555481 -0.584076,0.973633 0,0.953156 0.383606,1.35156 0.778931,2.142 0.429901,0.860382 0.827393,1.52496 1.36289,2.23941 0.087402,0.116425 0.188995,0.28656 0.292053,0.389465 0.593719,0.593933 0.531189,1.51987 1.07092,2.23935 0.743958,0.992798 1.11124,1.83356 1.65482,2.92111 0.523407,1.04694 1.70462,1.85187 2.3364,3.11542 0.352936,0.706207 0.973663,2.05081 0.973663,3.01849 0,0.763367 0.402802,1.51386 0.584076,2.23941 0.138245,0.553284 0.699829,1.09067 1.26556,1.46051 0.565918,0.36969 1.13922,0.649811 1.655,0.778839 0.911011,0.227814 1.96774,0.09726 2.92059,0.09726 1.00894,0 1.62711,-0.29187 2.53107,-0.29187 0.521179,0 1.2605,-1.35635 1.55765,-1.75272 0.650482,-0.867493 1.02905,-1.39029 1.2655,-2.33661 0.127502,-0.510345 0.260376,-1.01941 0.292145,-1.5581 0.031494,-0.5383 -0.071106,-1.0444 -0.486786,-1.46027 -0.354279,-0.354523 -0.414551,-0.703827 -0.389435,-1.07123 0.025055,-0.366974 0.135437,-0.732025 0.389435,-1.07086 0.136383,-0.182007 0.194641,-2.51511 0.194641,-2.62888 0,-0.09436 -1.23627,-1.64853 -1.4602,-1.94724 -0.546844,-0.729279 -0.685272,-1.66235 -1.07092,-2.43417 -0.415924,-0.832306 -0.486725,-1.5629 -0.486725,-2.62878 0,-0.823456 0,-1.61063 0,-2.43417 0,-1.11386 -0.50943,-1.48297 -1.07095,-2.04459 -0.591003,-0.591217 -0.567017,-1.10004 -0.778687,-1.94742 -0.145447,-0.581299 -0.078217,-0.922119 0.09729,-1.16824 0.175629,-0.246368 0.514435,-0.410339 0.876129,-0.681702 0.599182,-0.449341 0.778839,-1.39731 0.778839,-2.14188 -0.000122,-0.537476 -0.16861,-1.08124 -0.194641,-1.46057 -0.026154,-0.379425 0.058044,-0.671753 0.486725,-0.778839 0.39444,-0.098846 0.841064,0.225708 1.16815,0.584076 0.327209,0.358429 0.547729,0.795288 0.681427,0.973724 0.507202,0.676453 0.611145,1.06674 1.26572,1.5578 0.879364,0.659882 2.16266,0.98407 2.92059,1.36325 0.801208,0.400757 1.53409,0.809753 2.14163,1.26559 0.752838,0.56485 1.38141,1.08963 1.84958,1.55774 0.447144,0.447266 0.577423,1.32175 0.973663,1.85004 0.415131,0.553741 0.881195,0.686401 1.36282,1.16849 0.519836,0.519928 0.815369,1.53363 1.07095,2.04459 0.283112,0.566437 0.480194,0.786346 0.681274,0.7789 0.201447,-0.007446 0.451416,-0.274414 0.876282,-0.486786 0.268677,-0.134583 -0.418427,-2.16055 -0.486786,-2.43417 -0.190155,-0.760895 -1.26324,-1.84497 -1.55756,-2.43411 -0.314301,-0.628693 -0.212891,-0.897522 0,-0.876404 0.212585,0.021423 0.559448,0.267578 0.778717,0.486877 0.644012,0.644165 1.25861,0.862183 1.75235,1.84998 0.213867,0.427673 1.02698,1.02701 1.4603,1.46051 0.63446,0.634735 0.546448,1.2128 0.778778,2.14215 0.082184,0.328644 0.287201,0.407227 0.486786,0.389221 0.199432,-0.017639 0.446777,-0.181549 0.68158,-0.389221 0.46936,-0.415802 0.952118,-1.02875 1.07071,-1.26575 0.291107,-0.582458 0.378296,-1.23227 0.584076,-1.85001 0.268127,-0.804718 0.137054,-1.49933 -0.097229,-2.14206 -0.234558,-0.642792 -0.627045,-1.22669 -0.876282,-1.84998 -0.222839,-0.557159 -0.567322,-1.04318 -0.876129,-1.55786 -0.936127,-1.56036 -1.71124,-3.03314 -2.53101,-4.67343 -0.040222,-0.080261 -0.057953,-0.113922 -0.097443,-0.194855 -19.2802,-32.0342 -50.1104,-56.2042 -86.8374,-66.6949 z  m -95.0149,12.8522 c -0.490021,0 -1.27179,0.928284 -1.5575,1.07123 -0.626862,0.313385 -1.28137,1.034 -1.84988,1.4603 -0.591248,0.443604 -1.09119,0.842773 -1.65475,1.26575 -0.643188,0.482544 -1.06982,0.58429 -2.04446,0.58429 -0.92453,0.000244 -0.945282,0.423798 -1.655,0.778961 -0.830139,0.41507 -1.59766,1.73508 -1.94705,2.43396 -0.329163,0.658752 -0.801636,1.48325 -1.16815,1.84998 -0.445618,0.44577 -1.23981,0.717194 -1.75232,0.973724 -0.611206,0.30542 -0.389343,1.51212 -0.389343,2.142 0,0.420898 -1.64081,0.486938 -1.75232,0.486938 -0.223358,0 -1.51715,-1.9068 -1.65503,-2.0448 -0.688538,-0.688843 -0.3302,-0.812714 -1.36295,-1.07108 -0.559113,-0.13974 -1.01367,-0.092102 -1.26556,-0.194672 -0.251801,-0.1026 -0.389374,-0.378052 -0.389374,-1.07095 0,-0.75116 0.899139,-1.09399 1.26556,-1.4606 0.445526,-0.445343 1.32248,-0.758667 1.75232,-0.973541 0.626282,-0.313385 0.89035,-0.89032 1.36289,-1.36322 0.586914,-0.587006 0.681488,-1.26208 0.681488,-2.14197 0,-0.274475 -1.3851,-0.838623 -1.655,-0.973602 -0.618103,-0.309204 -1.01065,-0.992188 -1.75232,-1.36316 -0.013428,0.00766 -0.083984,-0.007446 -0.097412,0 -13.9579,7.84296 -26.4635,17.8594 -37.1881,29.5989 -0.119644,0.60144 -0.175522,1.3248 -0.389481,1.75244 -0.408691,0.817963 -0.982132,0.98233 -1.55762,1.55804 -0.430817,0.430847 -0.659592,1.23627 -0.973434,1.65527 -0.452011,0.602539 -1.13737,0.845306 -1.65494,1.36295 -0.501678,0.50177 -0.486679,1.64297 -0.486679,2.33691 0,0.656708 0.290161,0.898438 0.583984,0.876099 0.293762,-0.022278 0.549103,-0.319244 0.7789,-0.778809 0.284241,-0.568878 1.70854,-1.45193 2.23906,-1.84998 0.72789,-0.546204 1.76447,-0.900421 2.14169,-1.65521 0.341034,-0.682159 0.666306,-1.10748 0.87616,-1.94723 0.27887,-1.116 0.895889,-1.59717 1.46019,-2.72644 0.201721,0.630249 0.531403,1.40772 1.16829,2.0448 0.291306,0.291504 0.42749,0.713623 0.38942,1.07108 -0.038132,0.357391 -0.250381,0.695374 -0.38942,0.97345 -0.219086,0.438599 -1.10065,1.10086 -1.55769,1.55798 -0.553543,0.553833 -0.858154,0.548126 -1.16809,1.16852 -0.334763,0.669525 -0.89093,0.837097 -1.07086,1.55765 -0.168213,0.673187 -0.513123,1.1767 -0.681412,1.84979 -0.240219,0.961121 -0.080841,1.54132 -0.778915,2.23959 -0.473389,0.47348 -0.741272,1.40732 -0.876251,1.94739 -0.239273,0.957916 -0.669235,1.20776 -1.26547,1.65497 -0.649841,0.487793 -0.884598,1.49396 -1.07095,2.23965 -0.243835,0.975708 -1.40476,2.03052 -1.84964,2.9209 -0.382187,0.764679 -0.682388,0.878052 -1.07079,1.65527 -0.26976,0.539917 -0.308823,1.43005 -0.486862,2.14185 -0.197479,0.790222 -0.642151,1.53781 -1.16817,2.23935 -0.087204,0.116638 -0.286453,0.189301 -0.389343,0.292175 -0.519745,0.52002 -0.87616,1.71973 -0.87616,2.43411 0,0.66507 -0.896759,1.83469 -1.07085,2.53143 -0.237,0.947906 -0.422943,1.72211 -0.778961,2.43405 -0.439194,0.878876 -0.855362,1.22427 -1.26553,2.04474 -0.451157,0.902832 -0.714249,1.42883 -1.07079,2.14206 -0.286407,0.573273 -0.291992,1.39609 -0.291992,2.14215 0,0.655792 -0.228607,1.69315 -0.389374,2.33661 -0.178375,0.713379 0,1.69754 0,2.43426 0,0.954346 -0.341293,1.50952 -0.876266,2.04459 -0.626968,0.627136 -1.02803,0.996887 -1.26552,1.94739 -0.15033,0.601593 -0.55275,1.39777 -0.876114,2.04443 -0.427963,0.856018 -0.479828,1.35352 -1.07101,2.14215 -0.445694,0.594391 -0.768982,1.51856 -0.973465,2.33667 -0.21727,0.869385 -0.287735,1.54907 -0.681366,2.33676 -0.396393,0.793121 -0.481842,1.3432 -0.681488,2.142 -0.193481,0.774658 -0.519043,1.33044 -0.778839,1.85004 -0.375458,0.751038 -0.389206,1.55667 -0.584106,2.33685 -0.212585,0.850861 -0.291992,1.87231 -0.291992,2.72592 0,0.748413 -0.389481,1.66257 -0.389481,2.53159 0,0.897736 -0.093964,1.64123 -0.292007,2.43417 -0.191086,0.764679 -0.097427,1.58188 -0.097427,2.43411 0,1.21158 -0.291992,2.37036 -0.291992,3.60251 0,0.947296 0.374084,1.10718 0.584106,1.94733 0.184814,0.740082 0.110886,1.61243 0.291946,2.33652 0.08847,0.353821 0.194855,0.642059 0.194855,1.07141 0.294159,1.17737 1.07089,1.52548 1.07089,2.72604 0,0.943787 0.098969,1.36963 0.29187,2.14209 0.18837,0.753357 0,1.75085 0,2.53143 0,0.779358 -0.301437,1.79019 -0.486664,2.53152 -0.024979,0.099762 0,0.188995 0,0.292023 0,0.931335 -0.292007,1.91715 -0.292007,2.9209 0,0.285858 0.576187,1.6395 0.778671,2.04474 0.375809,0.751617 0.580017,1.83301 0.77887,2.62909 0.294037,1.17654 0.625488,2.19611 1.07083,3.31027 0.354599,0.886505 0.396851,1.57626 0.778793,2.53122 0.249985,0.624725 -0.038315,1.79388 0.097382,2.33691 0.189606,0.758453 0.194717,1.647 0.194717,2.43408 0,0.887207 0.19487,1.59003 0.19487,2.43405 -0.000168,0.843018 0.104782,1.58804 0.291946,2.33676 0.223801,0.896057 0.097366,1.55801 0.389404,2.142 0.493988,0.988403 0.957581,1.20215 1.16823,2.0448 0.210587,0.842896 0.501602,1.61685 0.681519,2.3367 0.21048,0.84256 1.06761,1.54587 1.26547,2.33682 0.27182,1.08734 1.25635,2.05545 1.75227,3.21307 0.307098,0.716675 0.311493,1.59631 0.584213,2.14203 0.258591,0.517334 1.45428,0.968994 1.84964,1.26566 0.369461,0.27713 0.367584,0.588867 0.48674,0.876343 0.119202,0.287598 0.317459,0.54187 0.87616,0.681549 0.668762,0.167175 1.10988,0.832458 1.55751,1.16824 0.589478,0.442352 -0.308014,-1.42715 -0.486603,-2.14191 -0.202103,-0.808533 -1.01385,-1.65735 -1.36298,-2.23935 -0.326599,-0.544708 -0.045425,-1.84326 -0.292099,-2.33682 -0.401794,-0.803833 -0.762039,-1.49094 -0.973602,-2.3367 -0.224945,-0.900238 -0.6521,-1.73318 -0.876099,-2.62894 -0.228256,-0.914063 -0.574585,-1.53873 -0.973465,-2.3367 -0.476868,-0.954193 -1.07079,-1.3042 -1.07079,-2.43417 0,-0.725555 -0.556702,-1.98965 -0.87616,-2.62878 -0.336243,-0.672577 -0.194748,-2.02679 -0.194748,-2.82364 0,-0.782379 -0.292114,-1.42175 -0.292114,-2.23926 0,-0.965607 -0.26384,-1.93188 -0.486786,-2.82364 -0.204895,-0.820313 -0.486572,-1.55392 -0.486572,-2.43424 0,-0.650635 0.170349,-0.87085 0.291946,-0.7789 0.121552,0.09201 0.194626,0.517944 0.194626,1.07123 0,0.605713 0.821548,1.24075 0.973648,1.84979 0.214523,0.858551 0.364624,1.75052 0.584045,2.62888 0.172623,0.690765 -0.188187,1.68066 0,2.43427 0.215378,0.862122 0.681595,1.36182 0.681595,2.33661 0,0.813995 0.291885,1.40549 0.291885,2.14215 0,0.532837 0.64624,1.61121 0.778854,2.14194 0.208817,0.835724 0.37767,1.7052 0.58403,2.53149 0.174957,0.69928 0.573456,1.61191 0.778854,2.43414 0.166916,0.667999 0.583984,1.49255 1.07085,2.14191 0.423569,0.564819 0.504471,1.59305 0.778961,2.142 0.435654,0.871887 0.645096,1.38773 1.07072,2.23941 0.345413,0.690887 0.599335,1.22922 0.778854,1.94733 0.20311,0.812622 0.909164,1.91577 1.26552,2.62888 0.33931,0.678497 0.720306,1.4212 0.876282,2.04465 0.230026,0.921143 0.45401,1.97913 0.876099,2.82355 0.34166,0.683685 0.676529,1.35321 0.97348,1.94739 0.424988,0.85025 0.981339,1.46799 1.55757,2.04468 0.704056,0.703949 1.68106,1.04385 2.53111,1.46027 0.85022,0.416748 1.53438,0.880188 1.7523,1.75266 0.188553,0.753967 0.80275,1.60559 1.07092,2.14206 0.396561,0.793121 1.14148,1.53113 1.75232,2.14209 1.61612,1.61652 2.97989,3.33981 5.06232,4.3815 0.7052,0.352509 1.17404,0.561096 2.04449,0.778809 0.877777,0.219543 1.59168,0.309204 2.3363,0.681458 0.750824,0.375702 1.44888,0.486938 2.33649,0.486938 0.352997,0 1.2446,0.822235 1.8497,0.973602 0.539307,0.13504 1.41254,-0.182526 2.14163,0 1.00238,0.250519 1.31958,-0.643799 2.33649,-0.389374 0.941528,0.235321 2.38449,2.3971 3.21246,3.01816 0.733307,0.550171 1.49698,1.13013 2.33655,1.84998 0.767731,0.658386 1.30148,1.0314 2.23901,1.26575 0.746918,0.186951 1.16385,0.289673 1.75232,0.584137 0.629974,0.315125 1.68869,0.097351 2.4339,0.097351 0.714111,0 1.42969,1.04053 1.84964,1.4606 0.997803,0.998047 2.17197,1.56567 2.82306,2.43417 0.572021,0.762878 0.899536,1.77582 1.55768,2.43405 0.592255,0.592316 1.42297,1.32562 2.14175,2.04471 0.594666,0.594788 1.27331,1.00482 1.46021,1.75226 0.19989,0.799957 1.15997,1.1644 1.75241,1.46066 0.652893,0.326447 1.53314,0.529358 2.14175,0.681488 0.542908,0.135864 1.42099,1.33386 1.84961,1.65527 0.326843,0.2453 2.00494,-0.194672 2.53116,-0.194672 0.685699,0 1.52759,0.998505 1.94714,1.55786 0.477753,0.637482 0.775269,1.16827 1.65479,1.16827 0.906128,0 1.66449,-0.398865 2.23907,-0.973816 0.455841,-0.455566 0.584076,-1.6926 0.584076,-2.33655 0,-0.598633 1.54596,0.767212 1.8497,1.07108 0.475067,0.475189 1.09772,1.19519 1.4603,1.55774 0.684814,0.684967 1.61725,1.57968 1.94708,2.23941 0.330811,0.661804 0.138947,1.54398 0.486725,2.23941 0.388519,0.777466 0.705414,1.23248 1.16827,1.84982 0.493378,0.658142 0.486725,1.18863 0.486725,2.23941 0,0.845215 0.194641,1.51251 0.194641,2.33676 0,0.720703 -0.615479,1.00201 -0.778778,1.65527 -0.195404,0.781647 -0.486725,1.32748 -0.486725,2.33679 0,0.699829 -1.2655,1.40344 -1.2655,2.43408 0,0.779053 0.780884,1.95593 0.973358,2.72613 0.220886,0.88385 0.467346,2.00586 0.876282,2.82373 0.471222,0.942688 1.20209,0.816772 1.46014,1.84985 0.22171,0.886902 0.27832,1.79474 0.486786,2.62878 0.196289,0.785583 0.688843,1.10004 0.876221,1.84998 0.163025,0.652771 0.664612,1.2489 1.07095,1.65521 0.501801,0.501953 1.3573,0.996521 2.04419,1.1684 1.24478,0.311035 1.70532,0.813293 2.33652,1.65527 0.554382,0.73938 0.834259,1.52631 1.65485,2.14209 0.816101,0.612122 1.17682,0.689697 1.75229,1.26556 0.131378,0.131348 0.235229,0.189148 0.389526,0.292114 0.77652,0.517883 0.990906,1.17694 1.94705,1.65527 0.775726,0.388 1.44025,1.03918 2.14166,1.46045 0.889282,0.533752 1.35349,0.920105 2.23914,1.36304 0.762268,0.381409 1.34799,1.11212 2.04443,1.46051 0.757751,0.37915 1.3186,0.692078 2.23901,0.876282 0.745331,0.149231 1.70105,0.425232 2.33658,0.58429 0.964966,0.241333 1.89145,0.410339 2.62836,0.778809 0.692474,0.346191 1.45004,1.15808 1.84964,1.55804 0.575378,0.575317 1.53888,1.01276 2.23923,1.36285 0.528595,0.264709 1.25809,0.726624 1.7522,0.973877 0.984283,0.492188 1.3714,1.19885 2.23917,1.84973 0.668335,0.501587 1.12506,1.12531 1.65485,1.65521 0.645844,0.64624 1.0361,1.52313 1.55765,2.04449 0.622375,0.622864 0.882813,1.29236 1.07095,2.04474 0.235901,0.944458 0.886993,1.48224 1.2655,2.23962 0.373108,0.746399 1.44727,1.18311 1.94699,1.84992 0.484772,0.646362 1.43143,0.944702 1.94699,1.46039 0.67688,0.677063 1.2706,0.882751 1.84979,1.65527 0.562988,0.750671 1.16577,0.971008 1.55753,1.3631 0.553406,0.553467 1.35431,0.823181 1.84964,1.07092 0.14917,0.074463 0.24054,0.138245 0.389557,0.194946 4.12097,-0.210815 8.1423,-0.532166 12.1688,-1.07123 0.032379,-0.077637 0.171661,-0.102661 0.194855,-0.194641 0.25647,-1.02661 1.50913,-1.82593 2.04428,-2.62885 0.553558,-0.83075 1.43164,-0.928955 2.14166,-1.07098 0.844574,-0.169006 1.21869,-0.732117 1.84964,-1.36304 0.643799,-0.644165 1.25937,-1.25732 1.84973,-2.04468 0.582336,-0.776672 0.791473,-1.31525 1.26562,-1.94727 0.560883,-0.74823 0.678955,-1.45563 1.07086,-2.23956 0.448364,-0.897217 0.922272,-1.58093 1.655,-1.94733 0.852356,-0.426453 1.09757,-1.07758 1.84964,-1.26556 1.00552,-0.251709 1.44147,-0.652588 2.3363,-0.876404 0.725159,-0.181458 1.91815,-1.91827 2.33658,-2.33679 0.614502,-0.614746 1.03278,-1.02014 1.65485,-1.85004 0.229553,-0.306091 0.415375,-0.707275 0.681519,-0.973633 0.205841,-0.257385 0.378357,-0.424072 0.584198,-0.68158 0.345306,-0.431824 0.361115,-1.83362 0.486572,-2.33667 0.178802,-0.715515 0.542938,-1.67004 0.876312,-2.33691 0.342468,-0.685059 0.229828,-1.62756 0.584045,-2.33661 0.394226,-0.788391 0.642181,-1.47925 0.973663,-2.14209 0.37027,-0.740906 0.121124,-1.60529 0.486572,-2.33667 0.376038,-0.752014 0.600525,-1.49322 0.876221,-2.04468 0.394714,-0.789795 0.251526,-1.05048 1.26532,-1.5578 0.542206,-0.270935 1.09869,-1.19598 1.55774,-1.65509 0.428375,-0.42865 0.667358,-1.72406 0.876282,-2.14209 0.365143,-0.730408 1.28091,-1.37848 1.75229,-1.8501 0.372772,-0.372925 0.72467,-1.21155 1.07086,-1.55774 0.414185,-0.414185 0.478729,-1.62335 0.583984,-2.04474 0.168182,-0.671753 0.121399,-1.45868 0.292328,-2.14197 0.188049,-0.752869 -0.547089,-1.32587 -0.876312,-1.65533 -0.624817,-0.624817 -1.04297,-1.43933 -1.84958,-2.04471 -0.693756,-0.520386 -1.17725,-0.787781 -1.55765,-1.16818 -0.500458,-0.500549 -1.38858,-0.742889 -2.04456,-1.07095 -0.559784,-0.280151 -1.07028,-0.389496 -1.94693,-0.389496 -0.823212,0 -1.70783,0 -2.5311,0 -0.887878,0 -1.35574,0.194611 -2.14178,0.194611 -0.838898,0.000153 -1.40054,0.194885 -2.23892,0.194885 -0.77182,0 -1.56482,0 -2.33643,0 -0.698639,0 -1.22565,-0.389496 -2.04452,-0.389496 -0.838898,0 -0.914032,-0.56955 -1.36285,-1.16843 -0.401855,-0.536102 -1.46738,-0.681549 -2.14172,-0.681549 -0.9151,0 -1.76199,-0.097412 -2.82315,-0.097412 -1.22586,0 -1.42911,0.325134 -2.33658,0.778961 -0.641998,0.321136 -1.25562,0.769012 -1.655,1.16843 -0.465027,0.46521 -1.49191,0.752655 -2.04422,0.973633 -0.726074,0.290436 -1.65268,0.17099 -2.33649,0 -0.46579,-0.116486 -0.608826,-0.424072 -0.681427,-0.779022 -0.072754,-0.354584 0,-0.801392 0,-1.26572 0,-0.90152 0.530304,-1.30905 1.07086,-1.84979 0.351654,-0.351929 0.292053,-1.59457 0.292053,-2.14206 0,-1.08795 0.11792,-1.22443 -0.292053,-2.04468 -0.352081,-0.704193 -1.06729,-0.970062 -1.46039,-1.3631 -0.465851,-0.466034 -0.816772,-1.30389 -1.2655,-1.75256 -0.429138,-0.429169 -0.875305,-1.26392 -1.16818,-1.84988 -0.290314,-0.581024 -1.11658,-0.899109 -1.65503,-1.16855 -0.669525,-0.334686 -1.68872,-0.446381 -2.23901,-0.584076 -0.673187,-0.168304 -1.63852,0 -2.33658,0 -0.771606,0 -1.46722,0 -2.23898,0 -0.824554,0 -1.46307,0.194763 -2.23908,0.194763 -0.58136,0 -1.14197,0.389313 -1.94708,0.389313 -0.63446,0 -1.22168,-0.882477 -1.65488,-1.46045 -0.56781,-0.757263 -1.26443,-0.874817 -1.75226,-1.36307 -0.520813,-0.521057 -1.14984,-0.662994 -1.55774,-1.07098 -0.483032,-0.483368 -1.8071,-0.719604 -2.43372,-0.876251 -0.920776,-0.230225 -1.69165,-0.456543 -2.33649,-0.778961 -0.888275,-0.444244 -0.921997,-0.870667 -1.36285,-1.75262 -0.375244,-0.750549 -0.68158,-1.16492 -0.68158,-1.94714 0,-0.619873 -0.378387,-1.63333 -0.584015,-2.04468 -0.14859,-0.297485 -0.392639,-0.622284 -0.486694,-0.779053 -0.301422,-0.603027 -0.041443,-0.93634 0.09726,-1.16827 0.138855,-0.231964 0.188446,-0.342468 -0.389252,-0.486786 -0.07016,-0.017456 -1.41992,1.25977 -1.55768,1.36319 -0.615387,0.461487 -1.07764,0.366577 -1.94714,0.583984 -1.28247,0.320831 -1.41812,0.264679 -2.53098,-0.292114 -0.462952,-0.231384 -0.539673,-0.506531 -0.681519,-0.681458 -0.141937,-0.174957 -0.275269,-0.271973 -0.973419,-0.097443 -0.710968,0.177826 -1.2395,0.668488 -1.84982,0.973755 -0.688751,0.344452 -1.04541,0.419067 -1.65497,0.87616 -0.629578,0.472504 -1.75424,0.829132 -2.33646,1.26584 -0.537201,0.402954 -1.96234,-0.34848 -2.23914,-0.486725 -0.730042,-0.365509 -0.749847,-1.63751 -0.87616,-2.142 -0.17041,-0.681946 -0.364807,-0.764984 -0.584076,-0.58429 -0.218933,0.180481 -0.485596,0.679443 -0.681427,1.07101 -0.251678,0.503571 -0.617401,0.645447 -0.973419,0.681488 -0.356079,0.036072 -0.650391,-0.033142 -0.973663,-0.194855 -0.091278,-0.045654 0.097443,-2.04565 0.097443,-2.33655 0,-0.379639 -1.22653,-1.42145 -1.36301,-1.55792 -0.368622,-0.368774 -0.601715,-0.279572 -0.778778,0 -0.17691,0.279724 -0.321014,0.739746 -0.486725,1.07098 -0.379181,0.758759 -0.395538,1.68616 -0.584137,2.62888 -0.159271,0.797211 -0.19458,1.63028 -0.19458,2.43417 0,0.556763 -0.482574,0.969421 -0.876129,1.36313 -0.365662,0.365875 -0.425171,-0.14151 -0.389435,-0.876343 0.035736,-0.734741 0.198669,-1.63483 0.09729,-2.142 -0.164001,-0.82016 -0.480286,-1.53186 -0.681519,-2.33667 -0.167114,-0.668884 -0.134064,-1.33933 -0.389435,-1.85004 -0.24353,-0.487335 -0.672058,-0.081543 -1.07077,0.486938 -0.398712,0.568085 -0.813049,1.34372 -0.973419,1.55777 -0.62207,0.829437 -1.96008,1.60751 -2.43381,2.23944 -0.223999,0.298553 -1.49371,0.795532 -1.84979,0.973572 -0.818176,0.409119 -1.84778,1.62946 -2.53107,2.14191 -0.64978,0.487732 -0.584076,1.87164 -0.584076,2.62903 -6.1e-05,0.954956 0.319885,0.820313 -0.194702,1.84982 -0.242737,0.485413 -0.634399,0.46225 -0.973572,0.292084 -0.339203,-0.170105 -0.552063,-0.45462 -0.681427,-0.584106 -0.541382,-0.541351 -0.962372,-0.776184 -1.75238,-0.973663 -0.862915,-0.215729 -1.53311,0.212769 -2.23907,0.389221 -0.954285,0.238831 -1.8237,0.650848 -2.72571,0.876465 -0.730865,0.182831 -1.78891,-0.033447 -2.43396,-0.194702 -0.546082,-0.136475 -1.06552,-0.870911 -1.55756,-1.3631 -0.620575,-0.620819 -0.834717,-0.820831 -1.4603,-1.65536 -0.473724,-0.631927 -0.627289,-1.07883 -1.26553,-1.55762 -0.783966,-0.588165 -0.958099,-0.261169 -1.36289,-1.07117 -0.347931,-0.696045 -0.582794,-1.1669 -0.973511,-1.5578 -0.394012,-0.394073 -0.292053,-1.36743 -0.292053,-2.14191 0,-0.758698 -0.194824,-1.71472 -0.194824,-2.53152 0,-0.787781 -0.155518,-1.5958 -0.291931,-2.14206 -0.171051,-0.684235 -0.097321,-1.65546 -0.097321,-2.33685 0,-0.573212 -0.973602,-1.14395 -1.46036,-1.26553 -0.806976,-0.201813 -1.37701,-0.389465 -2.62842,-0.389465 -1.04251,0 -1.88342,0 -2.92056,0 -0.771759,0 -1.56467,0 -2.33643,0 -0.58606,0 -0.733917,-0.123688 -1.07083,-0.292328 -0.133392,0 -0.876282,-2.05414 -0.876282,-2.33652 0,-0.845459 -0.194641,-1.51242 -0.194641,-2.33691 0,-0.807861 -0.148376,-1.56723 -0.292114,-2.14185 -0.158569,-0.634979 -0.106384,-1.39905 -0.292053,-2.14215 -0.168274,-0.673279 0,-1.63858 0,-2.3367 0,-0.844482 0.194733,-1.24722 0.194733,-2.14206 0,-0.599182 0.097321,-1.4379 0.097321,-2.14203 0,-0.905914 -0.510712,-1.56985 -1.26556,-1.9473 -0.658844,-0.329559 -1.45306,-0.194763 -2.23898,-0.194763 -0.804382,0 -1.3143,0.206848 -2.04446,0.389374 -0.82724,0.207001 -1.23349,1.13644 -1.55753,1.46075 -0.551514,0.551453 -0.600189,1.4267 -0.778839,2.14194 -0.17099,0.683899 -0.097321,1.65533 -0.097321,2.33682 0,0.381622 -0.854767,1.47183 -0.973663,1.94702 -0.215607,0.86322 -1.3992,1.38141 -1.94687,1.65527 -0.812164,0.406311 -2.21097,-0.083221 -2.82318,-0.389435 -0.500916,-0.25061 -1.39435,-1.69678 -1.65494,-2.04443 -0.421051,-0.561646 -0.883972,-0.981415 -1.26572,-1.36343 -0.519623,-0.519592 -0.98822,-0.798401 -1.55743,-1.55771 -0.44278,-0.590515 -0.763702,-1.23529 -0.973663,-1.65527 -0.369019,-0.738251 -0.471619,-1.23535 -0.876099,-2.04468 -0.36673,-0.733673 -0.848572,-1.50232 -1.26556,-2.33652 -0.46048,-0.921295 -0.476593,-1.353 -1.07098,-1.94739 -0.615387,-0.615753 -0.778717,-1.47443 -0.778717,-2.33691 0,-0.864075 -0.292053,-1.77179 -0.292053,-2.62888 0,-0.782074 -0.292114,-1.51895 -0.292114,-2.33667 0.000153,-0.782379 0,-1.51904 0,-2.3367 0.000153,-0.722565 0.486786,-1.31848 0.486786,-2.14206 0,-0.898499 -0.194672,-1.29639 -0.194672,-2.14209 0,-1.01651 0.081787,-1.51859 0.486786,-2.53143 0.260742,-0.652161 1.01059,-1.14493 1.26553,-1.65521 0.306244,-0.61264 0.629486,-1.06638 1.07095,-1.65521 0.445984,-0.595001 1.13126,-0.940826 1.84961,-1.16827 0.718201,-0.227661 1.46292,-0.414612 2.14163,-0.584106 1.05563,-0.26416 1.94354,-0.147156 2.92065,0.09726 1.0593,0.264954 2.09387,0.389435 3.21256,0.389435 0.538879,0 0.797821,0.264526 1.07077,0.486725 0.27301,0.222412 0.540833,0.424774 1.07089,0.292175 0.539825,-0.135101 0.389496,-1.8775 0.389496,-2.33679 0,-0.551147 -0.215149,-0.840424 -0.194733,-1.07089 0.020294,-0.23056 0.265808,-0.42511 0.778778,-0.681702 0.89801,-0.448883 1.02957,-0.584167 2.14181,-0.584167 0.982574,0 1.90161,0.194794 2.82303,0.194794 0.545837,-9.2e-05 1.33963,0.621216 1.84982,0.876221 0.49649,0.248413 0.805908,0.250702 1.16806,0.292175 0.362305,0.041443 0.693085,0.177521 1.07092,0.681488 0.51767,0.69046 1.25815,1.16089 1.75232,1.65521 0.539551,0.539825 1.57068,0.833984 2.04443,1.07092 0.34726,0.173859 0.290833,1.94229 0.389465,2.33685 0.187897,0.752136 0.63385,1.36499 0.973419,2.04465 0.474274,0.94873 0.696472,1.98447 1.07083,2.92105 0.268097,0.670227 0.519409,1.33078 0.778961,1.84988 0.409607,0.819702 0.645508,1.19913 1.3627,1.5578 0.590637,0.295288 1.20071,0.324615 1.84982,0.486847 0.768646,0.192261 1.39243,-0.493622 1.75232,-0.973816 0.277496,-0.369965 0.202209,-0.9263 0.097321,-1.46027 -0.104706,-0.534058 -0.304443,-1.05917 -0.486755,-1.36319 -0.575897,-0.960052 -0.403412,-1.89148 -0.778809,-3.01831 -0.295746,-0.887482 -0.910126,-1.73279 -1.36298,-2.33676 -0.451874,-0.602692 -0.535583,-1.65561 -0.876099,-2.3367 -0.36377,-0.727509 -0.592773,-1.29996 -0.778809,-2.0448 -0.18335,-0.733215 -0.231415,-1.50967 -0.389435,-2.142 -0.24408,-0.976563 0.32373,-1.784 0.973419,-2.43396 0.481873,-0.481934 0.545502,-0.819092 0.68158,-1.36325 0.778046,-0.77829 1.19504,-1.7084 1.655,-2.62863 0.392548,-0.785736 0.584167,-1.42261 0.584167,-2.33691 0,-0.478271 0.441467,-0.978546 0.97345,-1.46054 0.532043,-0.481781 1.15686,-0.958221 1.46027,-1.36301 0.565491,-0.754059 1.34106,-1.51434 1.75232,-2.33676 0.346741,-0.693939 1.034,-1.21549 1.26559,-2.142 0.158508,-0.635071 0.106323,-1.39908 0.292053,-2.14209 0.206451,-0.826385 0.385254,-1.54129 0.583984,-2.33667 0.199005,-0.795715 0.189636,-1.48068 0,-2.2395 -0.184753,-0.739319 -0.492828,-1.47269 -0.778778,-2.04468 -0.386139,-0.772491 -0.920563,-1.21256 -1.36285,-1.65527 -0.348816,-0.348816 -0.291931,-1.77701 -0.291931,-2.33655 0,-0.496429 1.48886,-0.486938 1.94693,-0.486938 0.710541,0 1.55289,-0.461182 2.04437,-0.584198 0.454773,-0.113678 1.08887,-1.20438 1.36279,-1.75253 0.342224,-0.684692 0.575073,-1.32672 0.778931,-2.14218 0.220123,-0.881165 -0.194794,-1.56158 -0.194794,-2.33652 0,-0.665527 0.737885,-1.3913 1.26556,-1.65521 0.758972,-0.37973 1.21167,-0.681793 2.14181,-0.681793 0.901031,0 1.66074,0.194763 2.53107,0.194763 1.04028,0 1.27261,-0.306091 1.655,-1.07083 0.28833,-0.577087 0.194641,-1.64899 0.194641,-2.33685 0,-0.788757 -0.049561,-1.56168 -0.194641,-2.14215 -0.118134,-0.472717 0.092651,-0.954956 0.194641,-1.36304 -0.130554,-0.52301 0.938721,-2.10687 1.07086,-2.23926 0.508453,-0.508606 1.06921,-1.02145 1.75235,-1.36316 0.585205,-0.292664 1.26379,-0.776855 1.84979,-1.36307 0.631104,-0.631531 1.17218,-1.3671 1.55759,-1.75253 0.569855,-0.570374 0.651733,-1.13855 1.16812,-1.65527 0.243561,-0.243408 0.13266,1.77951 0,2.04465 -0.189606,0.379425 -0.09256,0.646454 0.09729,0.973816 0.190002,0.326965 0.506226,0.661652 0.584229,0.973511 0.126678,0.50647 -0.083679,0.846222 -0.097351,1.07107 -0.013702,0.224609 0.09375,0.389496 0.778717,0.389496 0.960114,0 1.20395,-0.265961 1.55771,-0.973785 0.377472,-0.755188 1.05402,-0.839233 1.75229,-1.3631 0.528717,-0.396606 0.827606,-1.02216 1.36285,-1.55789 0.62915,-0.629333 1.06323,-0.768097 1.655,-1.55777 0.509521,-0.679138 1.18903,-0.691895 1.94702,-1.07092 1.06509,-0.532928 0.577484,-1.2641 1.75229,-1.55789 0.725159,-0.181366 1.18219,-0.806702 1.46036,-1.36301 0.29071,-0.581635 -0.486725,-1.42337 -0.486725,-2.04474 0,-0.992523 -0.268372,-1.36395 -0.77887,-2.04459 -0.275452,-0.367401 -0.543823,-0.434204 -0.77887,-0.389618 -0.234924,0.044617 -0.394928,0.200195 -0.583984,0.389618 -0.46405,0.464142 -0.681549,1.65482 -0.973572,2.23926 -0.406097,0.812347 -0.201752,1.34396 -0.876221,1.85007 -0.493073,0.36969 -1.79333,-1.00452 -2.14178,-1.26584 -0.611206,-0.458618 -1.52655,-0.584229 -2.33627,-0.584229 -0.499786,0 -0.750244,0.19165 -0.973511,0.292053 -0.223358,0.100525 -0.442749,0.088226 -0.77887,-0.584076 -0.26889,-0.538147 -0.175323,-1.67496 -0.291992,-2.14206 -0.105896,-0.423187 -0.364899,-0.600708 -0.486847,-0.778839 -0.121979,-0.178101 -0.041962,-0.444855 0.389404,-0.876373 0.564484,-0.564606 0.87616,-0.321686 0.87616,-1.36328 0,-0.784576 0.679474,-1.36197 1.26566,-1.65503 0.760681,-0.380493 0.350677,-0.973602 1.46021,-0.973602 0.772736,0 1.57574,-0.252502 2.04443,-0.486786 0.442383,-0.221497 0.703644,-0.523407 0.681427,-0.778961 -0.021973,-0.255493 -0.262543,-0.389465 -0.77887,-0.389465 -0.973938,0 -1.53668,0.584137 -2.53107,0.584137 -0.614502,0 -1.60019,0.670685 -2.14178,0.7789 -0.780212,0.156097 -1.52466,0.089142 -2.33627,0.292175 -0.835876,0.208893 -1.48288,0.857544 -2.33661,1.07086 -0.752594,0.188293 -1.69336,1.41956 -1.84964,2.04474 -0.243317,0.974091 -1.03757,1.81659 -1.75226,2.53153 -0.713531,0.713623 -1.06064,0.735504 -1.75238,0.389435 -0.091888,-0.045837 1.04678,-1.9964 1.26562,-2.43411 0.503479,-1.00702 0.667603,-1.64105 1.55759,-2.53159 0.67569,-0.675629 1.38248,-1.09024 1.94708,-1.65515 0.663116,-0.663147 0.978973,-1.34006 1.84964,-1.55777 0.88736,-0.221893 1.88382,-0.09729 2.82321,-0.09729 0.891418,-0.000214 1.4743,-0.389679 2.23901,-0.389679 0.711731,0 1.51248,-0.988068 2.14172,-1.46021 0.72113,-0.541199 1.89423,-0.51535 2.72592,-0.681763 0.946014,-0.189148 1.33856,-0.438019 1.65485,-1.07095 0.34848,-0.69696 1.26889,-0.58725 1.75253,-1.07114 0.34552,-0.345764 0.387329,-0.71286 0.486725,-0.973572 0.099152,-0.260498 0.181549,-0.459076 0.681335,-0.584137 0.766388,-0.191559 1.60953,-0.134674 2.2391,-0.291962 0.673096,-0.168243 1.54117,0 2.23914,0 0.548035,0 0.910706,-0.082672 1.07086,-0.292084 0.160156,-0.209534 0.194794,-0.568665 0.194794,-0.973663 0,-0.760681 -0.439178,-1.41275 -0.973602,-1.94739 -0.613525,-0.613708 -0.943512,-1.20569 -1.36301,-2.04468 -0.361664,-0.723724 -0.692108,-1.57928 -0.973419,-2.14209 -0.332062,-0.664276 -0.584229,-1.46057 -0.876221,-2.04456 -0.392639,-0.785889 -1.20126,-1.20102 -1.84964,-1.36325 -0.664764,-0.166046 -1.47174,-0.887573 -1.84973,-1.26569 -0.459869,-0.460052 -0.912018,-0.927399 -1.36285,-1.26569 -0.646576,-0.485046 -0.953003,-0.54303 -1.26562,-1.16843 -0.295227,-0.590729 -0.705139,-1.11841 -1.07071,-1.84991 -0.284027,-0.567871 -0.695862,-0.904785 -0.973663,-1.46045 -0.295197,-0.59082 -0.085236,-1.53354 -0.292053,-1.9473 -0.279449,-0.559204 -0.48822,-1.46341 -0.778717,-2.04459 -0.327606,-0.655334 -0.535339,-0.778442 -0.87616,-1.46075 -0.434723,-0.869476 0.098267,-1.36188 -0.486938,-1.94714 -0.554688,-0.554962 -0.586823,-1.02374 -1.26556,-1.36328 -0.41629,-0.207977 -0.581146,-0.399078 -0.778717,-0.486633 -0.197632,-0.087524 -0.40799,-0.03952 -0.876068,0.194763 -0.084412,0.042023 -0.695343,1.48804 -0.778931,1.65515 -0.353241,0.706757 -0.848572,0.848572 -1.55759,1.55777 -0.6539,0.654144 -1.03174,1.09015 -1.36301,1.75263 -0.292816,0.585876 -1.46744,0.192871 -1.84964,0.097504 -0.352875,-0.088287 -0.418671,-0.446198 -0.389343,-0.876312 0.029388,-0.430267 0.088287,-0.912628 0,-1.2659 -0.168243,-0.673218 0,-1.63843 0,-2.33661 0.000153,-0.334595 0.365265,-0.343262 0.77887,-0.389526 0.413727,-0.046356 0.931702,-0.15274 1.16821,-0.389465 0.292419,-0.292786 0.466217,-0.456451 0.486755,-0.68161 0.020294,-0.225037 -0.112366,-0.501923 -0.486755,-0.87616 -0.436859,-0.436951 -1.53238,-0.261414 -2.04437,-0.389618 -1.08499,-0.271271 -1.51331,-0.161407 -2.33658,-0.778809 -0.728699,-0.5466 -1.15289,-1.00992 -1.36289,-1.84988 -0.137421,-0.550323 -1.298,-0.446228 -1.84964,-0.584229 -0.777649,-0.194611 -1.58282,-0.194611 -2.43368,-0.194611 -0.729828,-0.000214 -1.28503,0.588928 -2.04437,0.778839 -0.426361,0.10675 -0.785675,-0.071228 -1.07086,-0.097351 -0.285126,-0.026245 -0.519928,0.034729 -0.681427,0.681458 -0.214294,0.856873 -0.559479,1.41092 -0.876221,2.04459 -0.260529,0.520996 -0.292084,1.37921 -0.292084,2.14215 0,0.94873 -0.25705,1.1135 0,2.142 0.174835,0.699554 -0.064972,1.62283 -0.194794,2.142 -0.198151,0.79303 0.197418,1.54724 0,2.33685 -0.252716,1.01111 -0.533813,1.36591 -0.097198,2.23941 0.404999,0.810059 0.830933,0.987488 1.0708,1.94717 0.192749,0.771667 -0.292084,1.56326 -0.292084,2.33682 0,0.668732 -0.979401,1.46814 -1.26556,1.84988 -0.35849,0.478302 -0.778717,1.29092 -0.778717,1.94717 -9.2e-05,0.533844 -1.26743,0.925934 -1.55774,1.07114 -0.773315,0.386719 -1.18576,1.02924 -1.65494,1.65515 -0.364746,0.486328 -0.389374,1.64307 -0.389374,2.2395 0,0.761963 -0.194794,1.52716 -0.194794,2.3367 0,0.772034 0,1.56485 0,2.33691 0,0.790344 0.191772,1.18008 0,1.94708 -0.184326,0.737549 -1.07379,1.21857 -1.55753,1.46051 -0.455841,0.228058 -0.890503,-0.02478 -1.16824,-0.389465 -0.277649,-0.364655 -0.486755,-0.885864 -0.486755,-1.16824 9.2e-05,-0.823669 0,-1.70804 0,-2.53168 9.2e-05,-0.657776 -0.194641,-1.43521 -0.194641,-2.14188 0,-0.823547 0,-1.61072 0,-2.4343 0,-0.952789 -0.299011,-1.39041 -0.486847,-2.14188 -0.1185,-0.473999 -1.19598,-1.19614 -1.55759,-1.55786 -0.530518,-0.530548 -1.25049,-0.966125 -1.84973,-1.26584 -0.492767,-0.246277 -1.20425,-0.912323 -1.55762,-1.26569 -0.742615,-0.74295 -1.19888,-1.03497 -1.55756,-1.75262 -0.37088,-0.741943 -1.33981,-0.876221 -2.14178,-0.876221 -0.849854,6.1e-05 -1.68143,-0.190216 -2.33639,-0.681427 -0.471252,-0.353485 -0.584167,-1.5416 -0.584167,-2.04486 0,-0.976868 -0.117279,-1.75577 -0.291931,-2.62872 -0.143402,-0.716736 -0.059265,-1.71024 0.097321,-2.3367 0.21933,-0.878052 1.17203,-1.56561 1.46018,-2.14206 0.402893,-0.80603 1.68237,-1.39038 2.33649,-2.04465 0.628845,-0.629059 0.966705,-1.55264 1.75232,-2.14215 0.994965,-0.746552 2.02869,-1.30621 3.11517,-1.84998 0.57428,-0.287109 0.649994,-1.10498 0.876221,-1.55765 0.405121,-0.810516 0.655823,-1.5321 1.16824,-2.04474 0.628174,-0.62851 1.17908,-1.17905 1.75232,-1.75272 0.497162,-0.497192 1.89047,-0.389343 2.14175,-0.389343 0.343201,0 0.96991,1.84268 1.07077,2.04471 0.213135,0.426147 0.374969,0.662201 0.68158,0.778839 0.306488,0.116882 0.778534,0.082672 1.16818,0 0.779175,-0.164978 1.67645,-0.576233 2.7258,-0.87616 0.584442,-0.167114 1.28345,-1.27466 1.84964,-1.55804 0.551025,-0.27536 0.584076,-1.56262 0.584076,-2.23932 0,-0.888336 -0.097229,-1.3558 -0.097229,-2.14194 0,-0.441559 -1.28934,-0.936707 -1.55765,-1.07108 -0.375946,-0.187988 -0.411041,-0.6203 -0.291992,-1.07092 0.118744,-0.450836 0.413513,-0.900635 0.584076,-1.07098 0.482391,-0.482697 1.31686,-0.816132 1.94693,-0.973755 0.837494,-0.209351 1.60468,-0.169525 2.23907,-0.486847 0.684784,-0.342346 0.86673,-0.769318 1.36307,-1.26569 0.771179,-0.771454 0.848724,-1.25345 1.07071,-2.142 0.163239,-0.653076 0.076508,-1.66882 0.194641,-2.14194 0.196747,-0.787018 0.946655,-1.52176 1.26566,-1.94745 0.234375,-0.312561 0.331024,-0.586792 0.584167,-0.7789 0.25296,-0.1922 0.577911,-0.292114 1.16827,-0.292114 0.561798,0 0.926544,0.024933 1.16812,0.194855 0.241547,0.169586 0.38324,0.474548 0.584106,0.87616 0.288391,0.577148 0.097412,1.64905 0.097412,2.33691 0,0.826904 -0.642548,1.12921 -1.07092,1.55768 -0.387573,0.387665 1.35785,1.21329 1.55765,1.36319 0.310089,0.232391 0.137787,0.732483 -0.194641,1.26569 -0.332611,0.533234 -0.815887,1.04761 -0.876221,1.16843 -0.253876,0.507629 -0.89798,1.01697 -1.2655,1.75263 -0.489105,0.978302 -0.585785,1.12003 -1.94714,1.46045 -0.88266,0.22052 -1.60373,0.899292 -2.14163,1.16818 -0.384369,0.192352 -0.399902,0.464081 -0.292175,0.778992 0.10791,0.314972 0.2742,0.663818 0.389435,0.7789 0.674866,0.674988 0.966248,0.655487 1.84973,0.876312 1.04932,0.262543 1.42261,-0.050232 2.04428,0.778961 0.422485,0.563385 0.597076,0.804565 0.876221,1.3631 0.396393,0.793335 0.854218,1.27533 1.07092,2.14194 0.096008,0.384491 1.54181,0.527649 2.04428,0.778961 0.653992,0.327057 1.67325,0.39856 2.23917,0.681641 0.716583,0.358368 1.04596,0.57782 1.84964,0.77887 0.648987,0.162262 0.861542,0.483093 1.65494,0.68158 0.473694,0.11853 0.766968,0.15448 0.973572,0 0.206604,-0.154633 0.284515,-0.457092 0.389343,-0.876251 0.086914,-0.348022 -0.294525,-0.77951 -0.681488,-1.07092 -0.386749,-0.291565 -0.769897,-0.433838 -0.87616,-0.487 -0.81543,-0.407867 -1.13306,-0.549042 -1.655,-1.07095 -0.423218,-0.423645 -0.612793,-0.794617 -0.584076,-1.07114 0.028809,-0.276215 0.276062,-0.470764 0.584076,-0.778748 0.299561,-0.299622 0.621399,-0.204865 0.973663,0 0.35202,0.204712 0.747284,0.552612 0.876068,0.681488 0.337402,0.337555 0.733917,0.243927 1.07086,0 0.337067,-0.243958 0.541077,-0.704041 0.584198,-0.876312 0.154633,-0.61908 0.291931,-1.02625 0.291931,-1.94733 0,-0.963165 -0.643219,-1.12647 -0.389343,-2.14209 0.106934,-0.428192 -0.256409,-0.747955 -0.68158,-0.973572 -0.425018,-0.225525 -0.924438,-0.401367 -1.16809,-0.584259 -0.783539,-0.587585 -1.16177,-0.57077 -1.55771,-1.36307 -0.285187,-0.570587 -0.091522,-0.872742 0.194794,-0.973328 0.286316,-0.101013 0.655701,-0.05542 0.876221,0 0.885254,0.22113 1.04611,0.656464 1.65479,1.26559 0.692932,0.692963 0.688446,1.07434 1.46036,1.46045 0.744232,0.372192 0.741852,0.973663 1.5575,0.973663 0.518494,0 0.58429,-1.57031 0.58429,-2.0448 0,-0.832245 -0.389496,-1.4483 -0.389496,-2.33676 0,-0.352539 0.822174,-0.962433 0.973572,-1.26569 0.230164,-0.460663 0.207428,-0.863464 0,-1.16843 -0.207581,-0.305023 -0.567841,-0.56778 -0.778839,-0.778809 -0.554993,-0.555206 -1.0311,-0.796692 -1.36295,-1.4606 -0.380249,-0.760895 -1.18729,-1.09 -1.84964,-1.75241 -0.100067,-0.200378 -0.431763,0.008972 -0.77887,0.09726 -0.346893,0.088165 -0.689423,0.065521 -0.87616,-0.681458 -0.178986,-0.717041 0.227783,-1.68973 0.389435,-2.33695 0.184113,-0.736084 0.601715,-0.946136 0.77887,-1.65518 0.138855,-0.555969 0.443878,-0.716675 0.584076,-0.876099 0.140198,-0.159576 0.170258,-0.341095 -0.097351,-0.876465 -0.187103,-0.374329 -1.18378,-0.786499 -1.55759,-0.973511 -0.619446,-0.310028 -1.00864,-0.813904 -1.36301,-1.16855 -0.341278,-0.34137 -0.19455,-1.81549 -0.19455,-2.3367 0,-0.38974 -0.187683,-0.702362 -0.486938,-0.876312 -0.299042,-0.173553 -0.657227,-0.231232 -0.973358,-0.389282 -0.560089,-0.280334 -1.2023,-0.292114 -2.04459,-0.292114 -0.67276,0 -1.71079,-0.135864 -2.33627,-0.292023 -0.719055,-0.180023 -1.65967,0.171417 -2.14166,0.292023 -0.673187,0.168304 -1.6387,0 -2.33652,0 -0.797913,0 -1.0834,-0.295227 -1.84964,-0.486938 -0.493866,-0.123474 -1.63232,0.864777 -2.04443,1.07092 -0.417755,0.209106 -0.596863,0.054413 -0.681274,-0.29187 -0.084717,-0.34668 -0.097504,-0.832184 -0.097504,-1.16852 0,-0.772064 0,-1.5647 0,-2.33682 0,-0.328644 -0.240021,-0.504211 -0.584076,-0.584137 -0.343964,-0.079865 -0.772186,-0.097412 -1.07092,-0.097412 z  m 84.4037,9.4445 c -0.414612,0.085785 -0.764282,0.428802 -0.876221,0.87616 -0.129883,0.519775 -0.193359,1.26038 -0.291992,1.6553 -0.030945,0.12384 -1.92532,-0.242432 -3.01794,0.194824 -0.462097,0.184875 -1.12476,0.475922 -1.55765,0.584137 -0.594238,0.148468 -0.41626,0.574341 -0.291901,1.07107 0.155151,0.620819 1.90131,0.743011 2.43372,0.876312 0.372681,0.093079 0.874023,0.776611 1.2655,1.1684 0.389557,0.389832 1.05154,0.666992 1.46027,0.973511 0.318115,0.238617 0.653839,0.945923 1.07086,1.36319 0.432892,0.433167 1.17892,0.635345 1.75229,0.778809 0.694214,0.173737 1.12882,-0.19458 1.84973,-0.19458 0.588165,0 1.10165,0.291992 1.75235,0.291992 0.674103,0 1.14355,-0.291992 1.75229,-0.291992 0.495758,0 0.697418,-0.800049 0.973511,-1.16827 0.361908,-0.482849 0.389496,-1.22968 0.389435,-1.85013 0,-0.573944 -0.187927,-1.14136 -0.292084,-1.55786 -0.123749,-0.495239 -1.10202,-0.7435 -1.36295,-1.26578 -0.327423,-0.655243 -0.347015,-0.820221 -1.07077,-1.36304 -0.493591,-0.370117 -1.38806,-0.791504 -1.75235,-0.973572 -0.578705,-0.289429 -1.00095,-0.53183 -1.46036,-0.876373 -0.303986,-0.22821 -0.765869,-0.292114 -1.26559,-0.292114 -0.327362,0 -0.743195,0 -1.07086,0 -0.144318,-0.036041 -0.251251,-0.028503 -0.389282,0 z  m 34.2675,12.5601 c -0.627747,0.082306 -0.778778,1.02768 -0.778625,1.84992 0,0.828949 -1.11087,1.5878 -1.46036,1.84982 -0.480743,0.360626 1.94961,1.31522 2.14178,1.36331 0.821564,0.205414 1.50442,0.904358 2.33633,1.07092 0.600098,0.120056 1.59409,0.773956 2.33652,1.07092 0.425842,0.170532 0.558441,0.794922 0.681366,1.4606 0.123291,0.665436 0.194641,1.34265 0.194641,1.75263 0,0.846832 -0.004639,1.7334 0.194794,2.53153 0.208099,0.832245 0.442444,1.15033 0.194702,2.14178 -0.118286,0.473877 -0.17572,0.835571 -0.194702,1.16849 -0.018921,0.332977 0.033203,0.617401 0.389343,0.973572 0.639648,0.639984 2.44058,0.298859 3.21274,1.07108 0.764252,0.764679 1.36099,1.28262 2.23898,2.33676 0.450378,0.540588 -0.041626,1.51608 0.584076,2.142 0.429504,0.429657 1.85361,0.510345 2.33643,0.389526 0.340302,-0.085175 0.503082,-2.0119 0.584167,-2.33691 0.101837,-0.40744 0.700714,-0.620605 1.36291,-0.681458 0.66214,-0.060822 1.42322,0.030243 1.75229,0.194763 0.585266,0.292694 0.6474,1.20694 0.486877,1.84988 -0.121063,0.484436 -0.018768,0.803131 0.194641,1.07114 0.21347,0.267731 0.528656,0.507874 0.876129,0.681641 0.640686,0.320221 1.49753,0.209564 1.94708,0.097198 0.714264,-0.17865 1.03461,-1.19311 1.36285,-1.84998 0.222626,-0.445221 0.317657,-0.780731 0.389435,-1.07092 0.071777,-0.290131 0.121521,-0.547516 0.584137,-0.778961 0.654663,-0.327545 0.959534,-0.834686 0.778717,-1.55804 -0.196747,-0.787781 -0.417633,-1.5166 -0.778717,-2.2392 -0.480347,-0.960663 -1.49451,-1.31574 -2.33643,-1.9472 -0.643219,-0.482941 -0.577576,-0.655365 -0.778931,-1.46054 -0.13504,-0.541504 -1.06265,-0.969482 -1.65485,-1.26584 -0.545197,-0.272583 -0.902466,-1.23004 -1.55759,-1.55786 -0.951813,-0.475922 -1.86453,-0.619385 -2.72592,-1.26553 -0.875793,-0.657013 -1.64493,-0.893036 -2.5311,-1.55801 -0.856384,-0.642426 -1.60782,-1.41302 -2.33643,-2.14194 -0.718597,-0.718781 -1.422,-1.03278 -1.94699,-1.5578 -0.644592,-0.644836 -1.6542,-1.02203 -2.33643,-1.36316 -0.881775,-0.440826 -1.37677,-0.959686 -2.14172,-1.26578 -0.924011,-0.369598 -1.58166,-0.468597 -2.43396,-0.68161 -0.291016,-0.072571 -0.618683,-0.332245 -0.875916,-0.486725 -0.110138,-0.027588 -0.202576,-0.011688 -0.292297,0 z  m -85.0849,46.2482 c -0.260376,0.260559 -0.741333,0.03009 -1.0708,0.194672 -0.353149,0.176819 -0.504578,0.850037 -0.584076,1.16858 -0.130829,0.522644 -0.085236,1.00983 -0.194794,1.55786 -0.124634,0.62265 0.062164,1.61142 0.194794,2.14185 0.104919,0.419983 -0.569031,0.943268 -0.778992,1.3631 -0.215973,0.432465 -0.493011,0.787354 -0.778625,1.16843 -0.335449,0.447418 -0.284302,1.42117 -0.389526,1.94724 -0.125244,0.626831 -0.156036,1.11111 -0.291992,1.65537 -0.10321,0.412476 -0.097351,0.82016 -0.097351,1.26575 0,0.336945 0.800171,0.54599 1.07092,0.681549 0.290344,0.145172 0.443939,-0.200134 0.584076,-0.584198 0.140045,-0.384338 0.25708,-0.841339 0.486694,-1.07107 0.469818,-0.469849 0.713379,-0.681549 1.36295,-0.681549 0.42511,0 0.880402,-0.097321 1.36285,-0.097321 0.269928,0 0.824127,0.16861 1.07095,0.292023 0.468536,0.234344 0.754547,0.462463 1.07077,0.77887 0.376556,0.37677 0.2659,0.821075 0.876312,0.973816 0.496613,0.124084 0.810913,0.389435 1.36276,0.389435 0.56604,0 1.08902,0 1.65515,0 0.411713,0 0.849304,0 1.26541,0 0.593353,0 0.584229,-0.377502 0.584229,-0.973877 0,-0.523712 0.075897,-0.887787 0.194641,-1.36295 0.121155,-0.485352 -0.104828,-0.808441 -0.194641,-1.16855 -0.105713,-0.422821 -0.799713,-0.897003 -1.07101,-1.16821 -0.60498,-0.605194 -1.26907,-0.501007 -1.46021,-1.26599 -0.08905,-0.355621 0.097351,-0.88443 0.097351,-1.26553 0,-0.370911 0.09729,-0.751617 0.09729,-1.16833 0,-0.498413 -0.312927,-0.723419 -0.486633,-1.07101 -0.214752,-0.429413 -0.615021,-0.389374 -1.07101,-0.389435 -0.428467,0 -1.03632,-0.109955 -1.46021,-0.194824 -0.479248,-0.095917 -0.745209,-0.063782 -1.07071,-0.389526 -0.356689,-0.356476 -0.68158,-0.3013 -0.68158,-0.87619 0,-0.300751 -0.206238,-0.629944 -0.291992,-0.973572 -0.102142,-0.408447 -0.185089,-0.552673 -0.486877,-0.778961 -0.181183,-0.135956 -0.672607,-0.097412 -0.876129,-0.097412 z  m 144.7613,3.6999 c -0.497314,0.071747 -0.513977,1.87711 -1.07086,2.4342 -0.514496,0.514587 -1.03973,0.650238 -1.46027,1.07068 -0.722687,0.723053 -1.59317,1.39889 -2.33646,2.1423 -0.636841,0.637085 -0.741394,1.90195 -1.07083,2.72629 -0.23584,0.589691 0,1.88098 0,2.53153 0,0.826996 -0.94928,2.12991 -1.26559,2.92065 -0.198456,0.49646 -0.365417,0.723206 -0.681427,0.876404 -0.315979,0.153351 -0.728973,0.157898 -1.26556,0.292114 -0.871887,0.217926 -1.57672,0.398926 -2.33643,0.779053 -0.554779,0.277283 -0.981506,1.47623 -1.2655,2.04465 -0.294098,0.588379 -0.131836,1.6955 -0.292023,2.33661 -0.259827,1.03955 -0.199707,2.21463 0,3.21292 0.163177,0.816498 0.29126,1.55444 0.486725,2.33697 0.211487,0.845856 -0.156433,1.59921 -0.292084,2.14178 -0.204559,0.818573 -0.485962,1.55484 -0.681488,2.33691 -0.198517,0.794708 0.77887,1.58865 0.77887,2.43417 0,0.891052 0.228424,1.71478 0,2.62888 -0.148743,0.594482 0.133484,1.46378 0.486725,2.33667 0.35321,0.872894 0.83313,1.77496 0.973419,2.3367 0.09668,0.386932 -2.01706,2.95038 -2.23901,3.50519 -0.281891,0.704803 -0.691956,1.64032 -1.16815,2.43417 -0.481232,0.802368 0.097382,1.70764 0.097382,2.53152 0,0.858521 0.19455,1.80832 0.19455,2.72623 0,1.12775 0.194794,2.28516 0.194794,3.40784 0,1.00964 -1.02472,2.44367 -1.26556,3.40759 -0.22876,0.915375 0.016357,2.07724 0.389496,2.82385 0.278168,0.556641 -0.226959,1.97757 -0.389496,2.62857 -0.274139,1.09647 0.292053,2.32468 0.292053,3.40775 0,0.154358 0,0.332458 0,0.486969 0,1.50314 1.22775,3.51086 1.55759,5.16022 0.180359,0.902405 -0.325806,1.40088 -0.486725,2.04474 -0.246765,0.98703 0.287659,1.73508 0.486725,2.53137 0.322571,1.29053 0.063416,2.40463 -0.486725,3.50519 -0.277496,0.555328 -0.283234,0.977142 -0.194702,1.46051 0.088745,0.483521 0.293488,0.97702 0.486694,1.46054 0.373535,0.933899 0.039215,2.20117 0.292084,3.21298 0.215271,0.861267 -0.097351,2.42795 -0.097351,3.40778 0,0.70639 -0.284821,1.04007 -0.486725,1.46045 -0.201904,0.420349 -0.311127,0.897125 -0.097351,1.75262 0.0513,0.205872 0.045746,0.475525 0.097351,0.681396 0.17984,0.719177 1.67798,2.23242 2.33627,2.72629 0.459503,0.344604 0.593964,0.714539 0.681458,1.07114 0.087921,0.356628 0.097565,0.712646 0.097565,1.26578 0,1.16818 0.127045,1.8793 0.876007,2.62878 0.45813,0.458313 1.34259,0.394684 1.84988,1.07108 0.41626,0.555115 0.389252,2.11328 0.389252,2.82349 0,0.866821 0.022583,1.36469 0.292145,1.84988 0.269348,0.485199 0.765869,0.960663 1.36289,1.55786 0.257202,0.257324 0.521454,0.424164 0.778778,0.681488 0.611206,0.611572 0.721039,1.69488 1.36285,2.33676 0.59549,0.595764 1.52243,1.34549 2.33664,1.75262 0.49115,0.245667 1.0029,0.075531 1.46008,-0.194763 0.457092,-0.270294 0.840759,-0.630554 1.16836,-0.876373 0.959503,-0.719543 1.6716,-1.39639 2.14169,-2.3367 0.636963,-1.2742 1.75995,-2.66687 2.04422,-4.08923 0.109406,-0.547119 0.26239,-0.900787 0.584229,-1.16843 0.321747,-0.267548 0.825226,-0.461395 1.2655,-0.681549 0.786102,-0.393097 1.52878,-1.24997 1.94699,-1.94733 0.460693,-0.768097 1.28922,-1.28427 2.14182,-1.07089 0.657928,0.164581 1.11691,0.650391 1.46011,1.16818 0.343292,0.518005 0.649078,1.03778 0.779022,1.55808 0.208191,0.833008 -0.63446,1.85309 -0.973663,2.53131 -0.568207,1.13696 -0.302063,1.99298 -1.07077,3.01831 -0.686493,0.915527 -1.03018,2.25507 -1.4603,3.11566 -0.580841,1.16217 -0.43161,2.93716 -0.681427,4.1868 -0.111115,0.555573 -0.508087,1.65991 -0.778839,2.3367 -0.315491,0.788849 -0.681519,2.28857 -0.681519,3.11563 0,1.09518 -1.14392,1.99573 -1.65488,3.01825 -0.605896,1.21197 -1.05896,2.45303 -1.55762,3.69995 -0.377472,0.943939 -0.838013,1.94852 -1.36289,2.82355 -0.466217,0.777466 -0.859894,1.58987 -1.07092,2.43417 -0.194427,0.777924 -0.708496,1.41715 -1.07077,2.142 -0.34314,0.686279 -0.404846,1.39359 -0.77887,2.14209 -0.694733,1.38953 -2.24527,3.80298 -3.40729,4.96555 -1.00177,1.00223 -2.30136,2.36368 -2.82321,3.40768 -0.342468,0.685272 -0.555817,1.20929 -0.876312,1.85013 -0.467133,0.934814 -1.09082,1.98727 -1.65479,3.11557 -0.394348,0.78891 -1.07639,1.1792 -1.46042,1.94748 -0.398193,0.796509 -0.579132,1.12534 -0.681274,1.55765 22.2595,-26.0856 35.8252,-59.919 35.8252,-96.878 0,-18.8614 -3.63977,-36.8334 -10.0271,-53.4533 -0.65097,0.051208 -1.80273,0.292084 -2.53137,0.292084 -0.469055,0.000244 -0.817139,0.362091 -1.07068,0.778809 -0.253662,0.416901 -0.403656,0.933472 -0.486816,1.26593 -0.230743,0.923126 -0.181335,1.97125 0.097382,2.9209 0.278748,0.949493 0.744751,1.8157 1.26547,2.3367 0.394684,0.394684 0.633362,0.777893 0.584167,1.07089 -0.049225,0.293182 -0.343903,0.486969 -0.973511,0.486969 -0.681793,6.1e-05 -1.08005,-0.108826 -1.36291,-0.292053 -0.282806,-0.183258 -0.430939,-0.431 -0.778809,-0.778961 -0.659668,-0.660034 -1.2601,-1.21417 -2.14179,-1.65512 -0.779327,-0.389832 -1.4454,-0.7229 -2.14163,-1.07107 -0.500641,-0.250397 -0.92627,-1.65781 -1.1683,-2.14194 -0.380524,-0.761261 -0.681274,-1.52838 -0.681274,-2.43439 -6.1e-05,-0.615448 -0.627686,-1.54703 -0.876282,-2.04452 -0.300995,-0.602234 -0.718689,-1.24252 -1.0708,-1.94717 -0.393616,-0.787476 -0.753967,-1.32016 -1.46051,-1.84988 -0.089935,-0.067688 -0.123383,-0.107758 -0.19458,-0.097504 z  m -184.5779,81.105 c -0.108154,0.047363 -0.241669,0.144165 -0.389435,0.292053 -0.430878,0.430756 -0.330261,0.346863 -1.07083,-0.097382 0.160339,0 2.03271,2.2522 2.43372,2.92099 0.188812,0.314667 0.727875,0.412079 1.26553,0.389374 0.537842,-0.022949 1.05536,-0.133209 1.36307,-0.194763 0.689209,-0.137848 0.86969,-0.549011 0.778717,-0.973572 -0.091003,-0.424805 -0.453522,-0.908325 -0.778717,-1.07117 -0.844055,-0.422272 -1.42163,-0.744934 -2.33652,-0.97348 -0.756805,-0.189453 -0.941376,-0.43454 -1.26553,-0.292053 z  m 1.7523,6.5233 c -0.575836,0.104004 -1.44235,0.468842 -1.75232,0.778961 -0.244324,0.244385 -0.042358,0.701843 0.194641,1.16834 0.237,0.466522 0.574829,0.857697 0.681458,1.07117 0.298431,0.596802 2.06717,0.778809 2.72595,0.778809 0.553467,0 0.804291,-0.250061 0.876007,-0.584137 0.071899,-0.334259 -0.012665,-0.732147 -0.09729,-1.07108 -0.152405,-0.609802 -0.905457,-1.19766 -1.26559,-1.5578 -0.366547,-0.366791 -0.04187,-0.083588 -0.87619,-0.584259 -0.115265,-0.028809 -0.294769,-0.034821 -0.486664,0 z  m -7.8855,5.2579 c -1.11331,-0.003357 -2.15796,0.032227 -3.21262,0.876312 -1.28018,1.02411 -2.83057,2.88464 -3.69925,3.21292 0.192108,0.48056 0.345825,0.896667 0.681366,1.07086 0.335449,0.17453 0.843933,0.162292 1.36298,-0.097351 0.850647,-0.425385 1.41669,-0.610962 2.14175,-0.973511 0.751678,-0.375977 1.33057,-0.681549 2.14175,-0.681549 1.04095,0 1.73572,0.36087 2.62836,0.584137 0.674927,0.168701 1.18927,0.39978 1.94705,0.7789 0.787933,0.394073 1.51047,0.731628 2.14175,1.36325 0.613373,0.613312 1.74551,0.919617 2.33639,1.36289 0.607117,0.455627 1.72708,0.948425 2.33652,1.55792 0.394958,0.395142 1.23019,1.24799 1.84964,1.55795 0.6539,0.326904 1.21195,0.260101 1.75229,0.097351 0.540253,-0.163086 1.09891,-0.389465 1.84973,-0.389618 0.547638,0 1.47598,0.054504 2.33639,0.097351 0.860291,0.042847 1.6138,0.041351 1.94693,-0.292114 0.207001,-0.206909 0.49176,-0.488159 0.584167,-0.778809 0.092438,-0.290588 -0.007416,-0.537384 -0.584167,-0.681396 -0.822968,-0.206024 -1.54813,-0.460205 -2.43368,-0.681793 -1.22559,-0.306366 -0.837585,-0.856781 -1.84964,-1.36301 -1.14648,-0.573425 -1.48611,-0.736572 -2.82324,-1.07117 -0.875916,-0.218994 -2.20386,-0.353882 -2.92056,-1.07086 -0.644806,-0.645081 -0.99057,-1.80975 -1.65488,-2.14215 -1.16183,-0.580994 -2.05035,-1.38361 -3.40729,-1.65518 -1.35425,-0.270844 -3.01038,-0.68158 -4.38092,-0.681335 -0.404083,0 -0.699646,0.000824 -1.07083,0 z  m 25.9929,8.86 c -0.2211,-0.019989 -0.46106,0.042145 -0.68158,0.097382 -0.904999,0.226318 -3.26813,0.013702 -3.40735,0.292053 -0.154266,0.257233 -0.352417,0.510498 -0.486572,0.7789 -0.31308,0.626221 -0.260529,0.829102 -0.097504,0.973724 0.163086,0.14447 0.470032,0.177887 0.77887,0.486786 0.115662,0.115875 0.390381,0.494995 0.486755,0.876312 0.096344,0.381409 0.003387,0.777161 -0.389404,0.973663 -0.087708,0.043762 -1.98251,1.00009 -1.94699,1.07098 0.256683,0.513397 0.520203,0.681427 1.65485,0.681427 0.944336,0 1.5939,0.124329 2.43387,0.292236 0.565063,0.113007 1.80109,0.426086 2.33633,0.292175 1.2659,-0.31665 2.21204,-0.654572 3.01801,-1.4606 0.679871,-0.680237 0.690491,-0.36731 1.94702,-0.681458 0.434662,-0.108826 0.955475,-0.089447 1.2655,-0.194763 0.310181,-0.105316 0.486786,-0.325684 0.486786,-0.876404 0,-0.584564 -0.673737,-1.36301 -1.46036,-1.36301 -0.688751,0 -1.60529,0.024902 -2.23895,-0.292023 -0.880981,-0.440826 -0.887268,-1.19562 -1.94705,-1.46054 -0.49765,-0.124634 -1.08911,-0.426392 -1.75223,-0.486847 z  m 11.0979,3.4077 c -0.306641,-0.07666 -0.469635,0.367798 -0.486542,0.876556 -0.017212,0.508514 0.143555,1.06149 0.19455,1.26559 0.112915,0.451935 1.69717,0.681427 2.23917,0.681427 0.541595,0 0.975281,0.015808 1.16818,-0.09729 0.192871,-0.11322 0.135651,-0.312683 -0.097473,-0.7789 -0.328583,-0.657532 -0.521027,-1.42889 -1.16809,-1.75262 -0.534271,-0.266998 -1.26736,-0.194519 -1.84979,-0.194763 z  m 8.7617,.6815 c -0.159546,0.118164 -0.249573,0.546997 -0.194702,0.973755 0.054962,0.426819 0.27713,0.799408 0.973572,0.973724 0.686157,0.171661 1.6984,0.110657 2.14172,0 0.359955,-0.090057 0.220276,-0.383606 -0.097443,-0.779114 -0.317566,-0.395233 -0.73877,-0.807556 -1.07077,-0.973358 -0.398651,-0.199554 -1.15948,-0.195007 -1.655,-0.195007 -0.040314,-0.020142 -0.051666,-0.033508 -0.097382,0 z  m -31.8338,.9738 c -0.129578,0.007813 -0.358093,0.097351 -0.486786,0.097351 -0.129578,-0.106232 -1.50284,-0.027374 -2.14163,0.292328 -0.446411,0.223022 -0.737885,0.439758 -0.876221,0.681305 -0.138123,0.241516 -0.145447,0.585144 0.09729,1.07108 0.25354,0.50708 0.285706,0.841888 0.389557,1.07101 0.103485,0.228943 0.301117,0.343109 0.876221,0.486877 0.93396,0.233429 1.77466,0.524323 2.6283,0.097412 0.659882,-0.330109 0.97348,-1.28348 0.973633,-2.04468 0,-0.939514 -0.262817,-1.45322 -1.07092,-1.65533 -0.124878,-0.03125 -0.259857,-0.105103 -0.389435,-0.097351 z  m 35.9226,3.5051 c -0.497803,0.105774 -0.411407,0.854187 0.097504,1.36319 0.607178,0.6073 1.24313,0.400696 1.65485,0.194763 0.448364,-0.224335 0.27771,-0.59613 -0.09729,-0.876312 -0.375061,-0.280182 -0.944916,-0.48111 -0.973572,-0.486786 -0.293549,-0.146912 -0.515503,-0.230042 -0.681488,-0.194855 z  m 3.0179,4.2841 c -0.261353,0.202515 -1.07071,0.866425 -1.07071,1.26584 0,0.380249 0.395874,0.377289 0.876068,0.292084 0.480194,-0.08548 0.992798,-0.253052 1.07092,-0.292084 0.450836,-0.225616 -0.362885,-0.936646 -0.778778,-1.26584 -0.01474,0.006592 -0.072906,-0.012024 -0.097504,0 z  m .5842,3.5052 c 0.016296,0.026978 0.078552,0.164978 0.09726,0.194611 0.072632,-0.06073 0.108734,-0.189606 0.097504,-0.194611 -0.009491,-0.004333 -0.109314,-0.042847 -0.194763,0 z  m .0973,.1946 c -0.343872,0.288391 -1.42349,1.02145 -1.55756,1.5578 -0.114105,0.456604 1.901,-0.074188 1.94699,-0.097198 0.452087,-0.226166 -0.091003,-0.987793 -0.389435,-1.4606 z  m 4.0889,1.0709 c -0.044495,0.461548 -0.529572,1.72055 -0.097443,2.0448 0.63739,0.47821 0.928101,0.342194 1.07086,0.09726 0.142731,-0.244843 0.127625,-0.620972 0,-0.87616 -0.243774,-0.487762 -0.526123,-0.809052 -0.973419,-1.2659 z "/>
<path style="fill:url(#svg_5);stroke-linejoin:round;stroke-linecap:round;stroke-width:20;stroke-dashoffset:50" id="svg_4" d="m 273.735,93.7122 c 0,0 -39.0807,-3.78732 -65.9691,15.6594 -26.8884,19.4467 -41.5845,62.1275 -72.8153,75.0637 -62.4616,25.8724 -111.062,12.7667 -111.062,12.7667 -28.5632,-68.9576 4.2207,-148.105 73.1783,-176.668 68.9576,-28.5632 148.105,4.2207 176.668,73.1783 z "/>
</g>
</g>
</symbol>
</defs>
<g>
<g id="g3" externalResourcesRequired="false">
<g id="g5" externalResourcesRequired="false">
<g id="g7" externalResourcesRequired="false">
<g id="g9" externalResourcesRequired="false">
<g id="g11" externalResourcesRequired="false">
<g id="g13">
<path id="path15" d="m 283.155,176.93 c 6.87201,1.771 13.684,3.74899 20.398,5.931 -7.09302,0.574005 -14.16,0.937012 -21.191,1.08801 -0.125977,1.07599 -0.372009,2.13098 -0.545959,3.19699 8.40796,0.559998 16.863,0.924988 25.332,1.09 l 10.78,1.64 c 0.010986,0.190979 -10.811,8.92999 -11.136,8.664 -0.22699,-0.052002 4.25201,0.96698 4.25201,0.96698 4.039,-2.69598 7.75903,-5.699 11.649,-8.90601 l .37,-2.883 3.509,.467 .554,-4.385 -3.521,-.369 c 0.136963,-1.11902 0.187988,-2.246 0.28595,-3.36801 -2.82398,-4.62698 -6.01196,-8.99499 -9.16895,-13.095 0,0 -4.59406,0 -4.36102,0 0.317993,-0.212982 8.90301,12.487 8.72699,12.694 l -10.867,-.905 c -8.25098,-1.98498 -16.521,-3.741 -24.8,-5.267 l -.266,3.44 z "/>
<path id="path17" d="m 329.298,193.64 c -2.83502,-0.490997 -4.68201,-3.89999 -4.25299,-7.634 0.539001,-3.72101 2.98096,-6.60599 5.93097,-6.40201 2.867,0.197998 5.12799,3.647 4.55402,7.66501 -0.466003,4.03 -3.323,6.87302 -6.23199,6.371 z "/>
</g>
<g id="g19">
<path id="path21" d="m 278.112,202.19 c 6.25,3.23999 12.438,6.686 18.555,10.335 -6.97595,-1.00299 -14.024,-2.26199 -20.931,-3.69699 l -1.184,3.015 c 8.05102,2.422 16.169,4.655 24.368,6.70599 l 10.139,4.012 c 0.059021,0.229004 -12.55,6.27301 -12.719,5.983 -0.210022,-0.10199 3.927,1.89499 3.927,1.89499 4.36499,-1.80298 8.94,-3.77298 13.274,-6.104 l 1.064,-2.706 3.315,1.241 c 0.566956,-1.36099 0.978943,-2.78 1.47199,-4.16901 l -3.349,-1.147 1.083,-3.209 c -1.82001,-5.173 -3.77002,-10.104 -6.08301,-14.838 0,0 -4.479,-1.01901 -4.25201,-0.96701 0.416992,-0.130005 5.95001,14.176 5.742,14.343 l -10.391,-3.309 c -7.54004,-3.76001 -15.306,-7.345 -23.047,-10.677 -0.324036,1.099 -0.580994,2.21899 -0.983032,3.293 z "/>
<path id="path23" d="m 319.336,228.793 c -2.703,-1.133 -3.70996,-4.85998 -2.41199,-8.38998 1.21197,-3.55902 4.44403,-5.76202 7.23199,-4.91803 2.79199,0.845001 4.01801,4.65201 2.703,8.49499 -1.39996,3.81302 -4.84998,5.936 -7.52301,4.81302 z "/>
</g>
<g id="g25">
<path id="path27" d="m 267.527,225.668 c 5.43103,4.595 10.631,9.302 15.764,14.216 -6.63403,-2.573 -13.117,-5.30399 -19.541,-8.24899 l -1.887,2.644 c 7.32105,4.16101 14.761,8.16303 22.312,12.002 l 8.985,6.17 c -0.031982,0.208008 -13.614,3.33199 -13.777,2.96504 -0.182007,-0.14502 3.40802,2.72095 3.40802,2.72095 4.76697,-0.703003 9.513,-1.71497 14.343,-2.95599 l 1.6151,-2.412 2.954,1.949 2.385,-3.72 -3.008,-1.867 c 0.622986,-0.940002 1.19299,-1.914 1.74896,-2.896 -0.549011,-5.41101 -1.47601,-10.717 -2.56201,-15.796 0,0 -4.13696,-1.996 -3.92694,-1.89499 0.395996,-0.049011 2.57794,15.121 2.33899,15.237 l -9.383,-5.546 c -6.56805,-5.38602 -13.256,-10.571 -20.052,-15.553 l -1.717,2.986 z "/>
<path id="path29" d="m 301.764,260.804 c -2.38098,-1.70599 -2.47595,-5.52197 -0.494995,-8.71898 2.07501,-3.13202 5.60004,-4.62701 8.13501,-3.17801 2.52502,1.44501 2.98401,5.49899 0.749023,8.88197 -2.14301,3.448 -6.03204,4.70599 -8.38904,3.01502 z "/>
</g>
<g id="g31">
<path id="path33" d="m 251.941,246.231 c 4.22502,5.63901 8.35002,11.478 12.244,17.387 -5.90698,-3.98798 -11.663,-8.12598 -17.261,-12.405 -0.766998,0.768005 -1.58398,1.479 -2.41101,2.17801 6.22601,5.68797 12.624,11.272 19.098,16.644 l 7.396,8.007 c -0.065002,0.203003 -14.014,0.234009 -14.088,-0.160034 -0.145996,-0.181946 2.72101,3.40802 2.72101,3.40802 4.81598,0.388977 9.64301,0.414001 14.637,0.29303 l 2.104,-2.0031 2.45,2.556 c 1.05102,-1.02899 2.15698,-2.00201 3.15698,-3.08203 l -2.519,-2.486 2.335,-2.447 c 0.675964,-5.37799 0.969971,-10.75 0.985962,-15.982 0,0 -3.58997,-2.86499 -3.40796,-2.72101 0.455994,0.088013 -0.824036,15.335 -1.08002,15.392 l -7.919,-7.489 c -5.20599,-6.70599 -10.518,-13.195 -16.091,-19.611 -0.723999,0.890991 -1.573,1.67398 -2.35101,2.521 z "/>
<path id="path35" d="m 277.568,288.111 c -1.90497,-2.14899 -1.276,-6.026 1.44,-8.61798 2.68402,-2.62305 6.46002,-3.29303 8.62604,-1.29999 2.12598,1.95196 1.66797,5.99896 -1.22803,8.83099 -2.92798,2.79999 -6.875,3.29895 -8.83801,1.08697 z "/>
</g>
<g id="g37">
<path id="path39" d="m 232.203,262.862 c 2.86801,6.42798 5.561,12.977 8.07199,19.64 -4.83798,-5.13501 -9.55899,-10.49 -14.077,-15.924 l -2.81,1.623 c 4.793,6.90301 9.763,13.713 14.905,20.424 l 5.435,9.448 c -0.096985,0.213013 -13.73,-2.90198 -13.683,-3.23401 -0.101013,-0.208984 1.89499,3.927 1.89499,3.927 4.543,1.31 9.34698,2.60504 14.191,3.48498 l 2.515,-1.448 1.822,3.035 c 1.28101,-0.729004 2.49402,-1.56598 3.74301,-2.34699 l -1.905,-2.983 2.847,-1.828 c 1.79601,-5.17999 3.33098,-10.263 4.48601,-15.391 0,0 -2.86603,-3.59003 -2.72101,-3.40802 0.401001,0.157043 -4.19002,14.779 -4.44701,14.793 l -6.063,-9.058 c -3.57599,-7.66705 -7.39899,-15.287 -11.379,-22.726 -0.947998,0.649963 -1.84598,1.37201 -2.82599,1.97199 z "/>
<path id="path41" d="m 247.887,309.351 c -1.414,-2.57501 0.130005,-6.10199 3.32999,-8.06598 3.16303,-2.02704 7.07603,-1.71704 8.71599,0.658997 1.672,2.422 0.246033,6.13995 -3.16998,8.32398 -3.45601,2.12103 -7.48601,1.61902 -8.87599,-0.916992 z "/>
</g>
<g id="g43">
<path id="path45" d="m 209.289,274.643 c 1.388,6.97498 2.535,13.914 3.48599,20.945 -3.586,-6.14301 -6.965,-12.344 -10.143,-18.623 l -3.117,.877 c 3.12997,7.82202 6.45297,15.594 9.96899,23.306 l 3.183,10.425 c -0.161987,0.124023 -12.728,-5.88202 -12.627,-6.28101 -0.052002,-0.22699 0.96698,4.25201 0.96698,4.25201 4.17102,2.44598 8.504,4.57001 13.067,6.64002 0.938995,-0.247009 1.84698,-0.593994 2.76999,-0.893005 l 1.097,3.365 4.185,-1.417 -1.19,-3.334 c 1.07599,-0.344055 2.121,-0.770996 3.173,-1.18402 2.944,-4.57098 5.51999,-9.30798 7.832,-13.956 0,0 -1.99499,-4.13599 -1.89502,-3.927 0.34201,0.209961 -7.396,13.438 -7.65799,13.38 l -3.889,-10.183 c -1.78598,-8.30395 -3.79099,-16.524 -6.00998,-24.652 l -3.2,1.26 z "/>
<path id="path47" d="m 214.191,323.462 c -0.794006,-2.80402 1.50601,-5.87299 5.051,-7.13202 3.58099,-1.14899 7.26602,-0.145996 8.35001,2.57599 1.074,2.69305 -1.08701,6.17304 -4.953,7.42004 -3.83099,1.35498 -7.65399,-0.058044 -8.448,-2.86401 z "/>
</g>
<g id="g49">
<path id="path51" d="m 184.342,280.997 c -0.218994,7.04401 -0.64801,14.121 -1.29001,21.222 -2.117,-6.75 -4.03699,-13.643 -5.737,-20.481 l -3.243,.236 c 1.31299,8.33697 2.819,16.594 4.52499,24.878 l .776,10.871 c -0.178009,0.161011 -11.09,-8.604 -10.905,-8.862 0,-0.231995 0,4.36096 0,4.36096 3.51898,3.12402 7.27499,6.43201 11.248,9.31006 l 2.894,-.222 .317,3.526 c 1.47,-0.088989 2.93201,-0.271973 4.393,-0.463989 l -.414,-3.516 3.358,-.428 c 3.87302,-3.85901 7.48001,-7.73602 10.743,-11.886 0,0 -1.01901,-4.479 -0.96701,-4.25195 0.296997,0.311951 -10.2,11.5229 -10.444,11.364 l -1.511,-10.795 c 0.125,-8.43799 0.009003,-16.918 -0.341003,-25.384 -1.12399,0.229004 -2.258,0.403992 -3.40201,0.521973 z "/>
<path id="path53" d="m 178.208,329.696 c -0.148987,-2.91602 2.767,-5.49103 6.508,-5.79797 3.729,-0.465027 7.10901,1.47894 7.55502,4.362 0.444,2.87897 -2.453,5.64496 -6.479,6.13995 -4.03702,0.337036 -7.435,-1.79797 -7.58401,-4.70398 z "/>
</g>
</g>
<path style="fill:#95c048" id="path55" d="m 168.468,281.439 c 29.978,0.116028 59.455,-12.117 80.589,-33.383 21.264,-21.135 33.495,-50.613 33.379,-80.589 h 5.84003 c 0.128967,31.489 -12.747,62.524 -35.09,84.718 -22.193,22.343 -53.229,35.219 -84.718,35.09 v -5.836 z "/>
</g>
<g id="g57" externalResourcesRequired="false">
<g id="g59" externalResourcesRequired="false">
<g id="g61">
<path id="path63" d="m 158.505,282.154 c -1.772,6.87201 -3.74899,13.684 -5.931,20.398 -0.574005,-7.09302 -0.936005,-14.16 -1.08801,-21.191 -1.07599,-0.125 -2.13001,-0.372009 -3.19699,-0.546021 -0.559998,8.40802 -0.924011,16.863 -1.08899,25.332 l -1.639,10.78 c -0.192017,0.010986 -8.92999,-10.811 -8.66501,-11.136 0.050995,-0.227051 -0.96698,4.25195 -0.96698,4.25195 2.69699,4.039 5.69998,7.75903 8.90598,11.649 l 2.883,.37 -.467,3.509 4.385,.554 .37,-3.521 c 1.11899,0.136963 2.246,0.187988 3.36798,0.286011 4.62601,-2.82404 8.99499,-6.01202 13.094,-9.16901 0,0 0,-4.59399 0,-4.36102 0.213013,0.317993 -12.487,8.90301 -12.694,8.72699 l .905,-10.867 c 1.98498,-8.25098 3.741,-16.521 5.267,-24.8 l -3.441,-.266 z "/>
<path id="path65" d="m 141.795,328.297 c 0.490997,-2.83502 3.89999,-4.68201 7.634,-4.25299 3.72101,0.539001 6.60599,2.98096 6.40201,5.93097 -0.197021,2.867 -3.647,5.12799 -7.66501,4.55402 -4.03,-0.466003 -6.87201,-3.323 -6.371,-6.23199 z "/>
</g>
<g id="g67">
<path id="path69" d="m 133.245,277.111 c -3.23999,6.25 -6.686,12.438 -10.334,18.555 1.00299,-6.97601 2.26199,-14.023 3.698,-20.931 l -3.015,-1.184 c -2.422,8.05102 -4.65601,16.169 -6.707,24.368 l -4.012,10.139 c -0.227997,0.05896 -6.273,-12.55 -5.98299,-12.719 0.100998,-0.210022 -1.895,3.927 -1.895,3.927 1.80299,4.36499 3.774,8.94 6.104,13.274 l 2.705,1.064 -1.241,3.315 c 1.36101,0.567993 2.78,0.979004 4.168,1.47205 l 1.148,-3.349 3.208,1.0829 c 5.173,-1.81995 10.104,-3.76996 14.838,-6.08295 0,0 1.01798,-4.479 0.96698,-4.25201 0.130005,0.416992 -14.176,5.95001 -14.342,5.742 l 3.309,-10.391 c 3.759,-7.54004 7.34399,-15.306 10.676,-23.0471 -1.09698,-0.323975 -2.21701,-0.579956 -3.29199,-0.982971 z "/>
<path id="path71" d="m 106.641,318.335 c 1.133,-2.703 4.86,-3.71002 8.39001,-2.41199 3.55999,1.21301 5.76299,4.44397 4.918,7.23199 -0.845016,2.79199 -4.652,4.01801 -8.495,2.703 -3.812,-1.40002 -5.935,-4.849 -4.813,-7.52301 z "/>
</g>
<g id="g73">
<path id="path75" d="m 109.767,266.526 c -4.595,5.43103 -9.302,10.631 -14.215,15.764 2.57301,-6.63397 5.30299,-13.117 8.24899,-19.541 l -2.644,-1.887 c -4.162,7.32098 -8.164,14.761 -12.001,22.312 l -6.17,8.985 c -0.208,-0.031982 -3.332,-13.614 -2.96501,-13.777 0.145012,-0.18103 -2.72099,3.40796 -2.72099,3.40796 0.703995,4.76703 1.71499,9.513 2.957,14.343 l 2.412,1.615 -1.949,2.954 3.719,2.3849 1.867,-3.008 c 0.940987,0.623047 1.915,1.19305 2.897,1.74902 5.41099,-0.549011 10.717,-1.47601 15.796,-2.56201 0,0 1.99599,-4.13696 1.89499,-3.927 0.048004,0.395996 -15.121,2.578 -15.238,2.33899 l 5.546,-9.383 c 5.386,-6.56799 10.572,-13.256 15.553,-20.052 l -2.988,-1.717 z "/>
<path id="path77" d="m 74.631,300.763 c 1.70601,-2.38098 5.52201,-2.47601 8.71901,-0.494995 3.13199,2.07501 4.627,5.59998 3.177,8.13501 -1.445,2.52496 -5.499,2.98401 -8.882,0.748962 -3.446,-2.14294 -4.70401,-6.03094 -3.01401,-8.38898 z "/>
</g>
<g id="g79">
<path id="path81" d="m 89.204,250.94 c -5.63901,4.22499 -11.478,8.34999 -17.387,12.244 3.989,-5.90698 8.12601,-11.663 12.406,-17.261 -0.766998,-0.766998 -1.479,-1.58401 -2.17799,-2.41101 -5.688,6.22601 -11.271,12.624 -16.643,19.098 l -8.007,7.395 c -0.202999,-0.063965 -0.233002,-14.0129 0.160011,-14.087 0.181988,-0.145996 -3.407,2.72101 -3.407,2.72101 -0.389999,4.81598 -0.415009,9.64301 -0.29401,14.637 l 2.004,2.1039 -2.556,2.449 c 1.02901,1.05096 2.002,2.15802 3.08101,3.15802 l 2.487,-2.519 2.446,2.335 c 5.37799,0.676025 10.75,0.969971 15.982,0.986023 0,0 2.866,-3.58905 2.72099,-3.40802 -0.08699,0.455994 -15.334,-0.822998 -15.391,-1.08002 l 7.489,-7.919 c 6.70599,-5.20599 13.196,-10.5179 19.611,-16.091 -0.89399,-0.723999 -1.677,-1.573 -2.524,-2.35101 z "/>
<path id="path83" d="m 47.325,276.567 c 2.149,-1.90503 6.026,-1.276 8.61801,1.44 2.62299,2.68402 3.293,6.46002 1.299,8.62598 -1.952,2.12604 -5.99901,1.66803 -8.83101,-1.22797 -2.799,-2.92804 -3.29799,-6.875 -1.086,-8.83801 z "/>
</g>
<g id="g85">
<path id="path87" d="m 72.574,231.202 c -6.428,2.86801 -12.978,5.561 -19.641,8.07199 5.135,-4.83798 10.49,-9.55899 15.925,-14.077 l -1.624,-2.81 c -6.903,4.793 -13.713,9.763 -20.423,14.905 l -9.448,5.435 c -0.213001,-0.096985 2.90199,-13.73 3.23399,-13.683 0.209,-0.101013 -3.92699,1.89499 -3.92699,1.89499 -1.309,4.543 -2.60501,9.34698 -3.485,14.191 l 1.449,2.515 -3.036,1.822 c 0.727989,1.28101 1.56599,2.49402 2.347,3.742 l 2.983,-1.905 1.829,2.848 c 5.17901,1.79597 10.262,3.32997 15.391,4.48598 0,0 3.58899,-2.86597 3.407,-2.72101 -0.157001,0.401001 -14.779,-4.19099 -14.792,-4.44698 l 9.057,-6.063 c 7.66699,-3.57599 15.287,-7.39899 22.726,-11.379 -0.651001,-0.947998 -1.373,-1.84598 -1.972,-2.82599 z "/>
<path id="path89" d="m 26.084,246.886 c 2.576,-1.414 6.103,0.130005 8.067,3.32999 2.02699,3.16303 1.71599,7.076 -0.66,8.71602 -2.422,1.672 -6.14,0.245972 -8.325,-3.17102 -2.12001,-3.455 -1.61801,-7.485 0.917999,-8.87499 z "/>
</g>
<g id="g91">
<path id="path93" d="m 60.792,208.288 c -6.974,1.388 -13.915,2.535 -20.945,3.48599 6.14201,-3.586 12.344,-6.965 18.623,-10.143 l -.877,-3.117 c -7.82199,3.12997 -15.593,6.45297 -23.306,9.96899 l -10.425,3.183 c -0.123989,-0.161987 5.882,-12.728 6.28101,-12.627 0.227001,-0.052002 -4.252,0.96698 -4.252,0.96698 -2.44501,4.17102 -4.569,8.504 -6.63901,13.067 0.247009,0.938995 0.592999,1.84698 0.89201,2.76999 l -3.366,1.097 1.417,4.185 3.334,-1.19 c 0.342999,1.07599 0.771999,2.121 1.184,3.172 4.571,2.94501 9.308,5.51999 13.955,7.83301 0,0 4.13701,-1.99499 3.927,-1.89502 -0.209,0.34201 -13.439,-7.396 -13.379,-7.65799 l 10.182,-3.889 c 8.304,-1.78598 16.524,-3.79099 24.652,-6.00998 l -1.258,-3.2 z "/>
<path id="path95" d="m 11.973,213.19 c 2.804,-0.794006 5.873,1.50601 7.132,5.051 1.149,3.58099 0.146002,7.26602 -2.57701,8.35001 -2.69299,1.073 -6.172,-1.08701 -7.41899,-4.953 -1.355,-3.83099 0.058001,-7.65399 2.864,-8.448 z "/>
</g>
<g id="g97">
<path id="path99" d="m 54.438,183.341 c -7.04399,-0.218994 -14.121,-0.64801 -21.222,-1.29001 6.75,-2.117 13.644,-4.03699 20.482,-5.737 l -.236,-3.243 c -8.33701,1.31299 -16.595,2.819 -24.878,4.52499 l -10.872,.776 c -0.160999,-0.178009 8.604,-11.09 8.86199,-10.905 0.232,0 -4.36,0 -4.36,0 -3.125,3.51898 -6.43199,7.27499 -9.30999,11.248 l .222,2.894 -3.526,.317 c 0.08799,1.47 0.272,2.93201 0.46299,4.393 l 3.516,-.414 .427,3.358 c 3.85899,3.87302 7.73599,7.48001 11.885,10.743 0,0 4.47901,-1.01901 4.252,-0.96701 -0.310999,0.296997 -11.523,-10.2 -11.363,-10.444 l 10.794,-1.511 c 8.43801,0.125 16.918,0.009003 25.384,-0.341003 -0.227013,-1.12399 -0.402012,-2.258 -0.520012,-3.40201 z "/>
<path id="path101" d="m 5.74,177.207 c 2.91599,-0.148987 5.49099,2.767 5.798,6.508 0.46399,3.729 -1.48,7.108 -4.36301,7.55499 -2.87799,0.444 -5.64499,-2.45297 -6.14,-6.47897 -0.336,-4.03702 1.79801,-7.435 4.70501,-7.58401 z "/>
</g>
</g>
<path style="fill:#95c048" id="path103" d="m 54.496,167.467 c -0.11599,29.977 12.118,59.455 33.383,80.589 21.135,21.264 50.613,33.495 80.589,33.379 v 5.83997 c -31.489,0.129028 -62.524,-12.747 -84.717,-35.09 -22.343,-22.193 -35.219,-53.229 -35.091,-84.718 h 5.836 z "/>
</g>
<g id="g105" externalResourcesRequired="false">
<g id="g107" externalResourcesRequired="false">
<g id="g109">
<path id="path111" d="m 53.781,157.504 c -6.872,-1.772 -13.683,-3.75 -20.398,-5.931 7.093,-0.574005 14.16,-0.936005 21.191,-1.08801 0.125,-1.07599 0.37199,-2.13001 0.546001,-3.19699 -8.409,-0.559998 -16.864,-0.924011 -25.333,-1.08899 l -10.78,-1.64 c -0.011,-0.191986 10.811,-8.92999 11.135,-8.664 0.22699,0.050995 -4.25201,-0.96701 -4.25201,-0.96701 -4.03799,2.69702 -7.758,5.70001 -11.649,8.90601 l -.37,2.883 -3.509,-.467 -.553,4.385 3.521,.37 c -0.13699,1.11899 -0.18899,2.246 -0.28599,3.36798 2.824,4.62601 6.011,8.99499 9.169,13.094 0,0 4.59299,0 4.36,0 -0.317999,0.213013 -8.903,-12.487 -8.72601,-12.694 l 10.867,.905 c 8.251,1.98502 16.521,3.74103 24.801,5.26703 l .266,-3.441 z "/>
<path id="path113" d="m 7.638,140.794 c 2.83499,0.490997 4.68199,3.89999 4.25299,7.634 -0.539001,3.72101 -2.98099,6.60599 -5.92999,6.40201 -2.868,-0.197021 -5.12801,-3.647 -4.55501,-7.66501 0.466,-4.03 3.32301,-6.87201 6.23201,-6.371 z "/>
</g>
<g id="g115">
<path id="path117" d="m 58.825,132.244 c -6.25,-3.23999 -12.438,-6.686 -18.555,-10.335 6.976,1.00299 14.024,2.26199 20.93,3.698 l 1.184,-3.015 c -8.051,-2.422 -16.169,-4.65601 -24.368,-6.706 l -10.139,-4.012 c -0.057991,-0.227997 12.551,-6.27301 12.72,-5.983 0.209,0.100983 -3.92701,-1.89502 -3.92701,-1.89502 -4.36599,1.803 -8.94,3.77401 -13.274,6.104 l -1.064,2.706 -3.315,-1.241 c -0.567989,1.36102 -0.979,2.78001 -1.472,4.16803 l 3.349,1.147 -1.083,3.209 c 1.81999,5.17301 3.76999,10.104 6.08299,14.838 0,0 4.47901,1.018 4.252,0.96698 -0.41699,0.130005 -5.94999,-14.176 -5.74199,-14.343 l 10.391,3.309 c 7.54001,3.759 15.305,7.34399 23.047,10.676 0.323009,-1.09698 0.579998,-2.21701 0.982998,-3.29199 z "/>
<path id="path119" d="m 17.6,105.641 c 2.70199,1.133 3.71,4.86002 2.412,8.39002 -1.213,3.56 -4.44501,5.76199 -7.233,4.918 -2.79201,-0.845001 -4.017,-4.65201 -2.704,-8.49503 1.402,-3.81298 4.85199,-5.93597 7.525,-4.81298 z "/>
</g>
<g id="g121">
<path id="path123" d="m 69.41,108.766 c -5.431,-4.59499 -10.631,-9.301 -15.764,-14.215 6.634,2.57401 13.117,5.30301 19.541,8.25 l 1.886,-2.644 c -7.32101,-4.16199 -14.76,-8.164 -22.312,-12.001 l -8.984,-6.17 c 0.031998,-0.208008 13.613,-3.332 13.776,-2.965 0.181992,0.144989 -3.407,-2.72101 -3.407,-2.72101 -4.767,0.70401 -9.513,1.715 -14.343,2.95701 l -1.615,2.412 -2.955,-1.949 -2.384,3.719 3.008,1.867 c -0.623001,0.940979 -1.19301,1.91501 -1.74901,2.89599 0.549007,5.41101 1.476,10.717 2.56201,15.796 0,0 4.13599,1.996 3.92699,1.89502 -0.396992,0.047981 -2.57899,-15.121 -2.33899,-15.238 l 9.383,5.546 c 6.569,5.38601 13.255,10.572 20.052,15.553 l 1.717,-2.988 z "/>
<path id="path125" d="m 35.172,73.63 c 2.381,1.70599 2.47501,5.522 0.49501,8.71899 -2.074,3.13202 -5.6,4.62701 -8.134,3.17701 -2.526,-1.44501 -2.98401,-5.499 -0.75,-8.882 2.14299,-3.44601 6.032,-4.70401 8.38899,-3.01401 z "/>
</g>
<g id="g127">
<path id="path129" d="m 84.995,88.204 c -4.224,-5.639 -8.35001,-11.478 -12.244,-17.387 5.907,3.98898 11.663,8.12601 17.261,12.406 0.765991,-0.768005 1.58299,-1.479 2.41099,-2.17801 -6.22599,-5.68799 -12.625,-11.272 -19.098,-16.644 l -7.395,-8.007 c 0.065002,-0.203011 14.013,-0.234013 14.087,0.16 0.144989,0.182011 -2.721,-3.40701 -2.721,-3.40701 -4.816,-0.389992 -9.64201,-0.414982 -14.637,-0.293983 l -2.104,2.003 -2.45,-2.556 c -1.05101,1.029 -2.157,2.00199 -3.158,3.082 l 2.519,2.487 -2.335,2.446 c -0.676006,5.37802 -0.969997,10.75 -0.986008,15.982 0,0 3.58901,2.866 3.407,2.72098 -0.45599,-0.087013 0.824013,-15.334 1.08101,-15.391 l 7.919,7.489 c 5.20601,6.70599 10.517,13.196 16.09,19.611 0.72699,-0.89402 1.575,-1.67701 2.353,-2.52301 v -1.5e-05 z "/>
<path id="path131" d="m 59.369,46.324 c 1.90601,2.14899 1.276,6.02499 -1.44,8.61801 -2.685,2.62299 -6.45999,3.293 -8.627,1.29898 -2.125,-1.95199 -1.66699,-5.99899 1.22801,-8.83099 2.928,-2.79901 6.876,-3.29801 8.83899,-1.086 z "/>
</g>
<g id="g133">
<path id="path135" d="m 104.734,71.573 c -2.868,-6.42802 -5.56101,-12.977 -8.07201,-19.64 4.83701,5.13498 9.558,10.49 14.077,15.925 l 2.81,-1.624 c -4.793,-6.90301 -9.763,-13.713 -14.906,-20.423 l -5.434,-9.448 c 0.096008,-0.213013 13.73,2.90201 13.682,3.23401 0.10099,0.208981 -1.895,-3.927 -1.895,-3.927 -4.54199,-1.30902 -9.34599,-2.60501 -14.191,-3.48502 l -2.515,1.449 -1.822,-3.035 c -1.28099,0.727999 -2.494,1.56601 -3.74299,2.34702 l 1.905,2.983 -2.847,1.829 c -1.79601,5.17899 -3.331,10.262 -4.486,15.391 0,0 2.866,3.58902 2.721,3.40701 -0.401001,-0.157013 4.19099,-14.779 4.447,-14.792 l 6.063,9.057 c 3.57601,7.66699 7.399,15.287 11.379,22.726 0.946999,-0.652985 1.846,-1.375 2.827,-1.974 z "/>
<path id="path137" d="m 89.049,25.083 c 1.41499,2.57599 -0.130005,6.103 -3.33,8.06699 -3.16301,2.02701 -7.076,1.71701 -8.71599,-0.659 -1.671,-2.422 -0.24501,-6.13998 3.17099,-8.32498 3.455,-2.121 7.48601,-1.61902 8.875,0.91699 z "/>
</g>
<g id="g139">
<path id="path141" d="m 127.647,59.791 c -1.38901,-6.97501 -2.53599,-13.915 -3.487,-20.945 3.586,6.142 6.965,12.344 10.143,18.623 l 3.117,-.877 c -3.129,-7.822 -6.453,-15.593 -9.96903,-23.306 l -3.183,-10.425 c 0.162003,-0.124029 12.728,5.88199 12.627,6.281 0.051025,0.22699 -0.965973,-4.25201 -0.965973,-4.25201 -4.17102,-2.44501 -8.505,-4.569 -13.068,-6.63901 -0.938004,0.247009 -1.84602,0.593019 -2.76901,0.893009 l -1.097,-3.366 -4.185,1.417 1.19,3.334 c -1.076,0.342979 -2.12099,0.771999 -3.17199,1.18399 -2.94501,4.57101 -5.52001,9.30801 -7.83301,13.956 0,0 1.996,4.13699 1.895,3.927 -0.341988,-0.208981 7.396,-13.439 7.65801,-13.379 l 3.889,10.182 c 1.787,8.30399 3.791,16.524 6.01001,24.652 l 3.2,-1.26 z "/>
<path id="path143" d="m 122.746,10.972 c 0.792999,2.80399 -1.50699,5.87299 -5.051,7.13199 -3.582,1.14902 -7.26601,0.146 -8.35001,-2.577 -1.07399,-2.69299 1.086,-6.17199 4.953,-7.419 3.83002,-1.35498 7.65402,0.05801 8.44801,2.86401 z "/>
</g>
<g id="g145">
<path id="path147" d="m 152.594,53.437 c 0.218994,-7.04401 0.64801,-14.121 1.29001,-21.222 2.11697,6.75 4.03699,13.644 5.737,20.482 l 3.243,-.236 c -1.314,-8.337 -2.819,-16.595 -4.52499,-24.878 l -.776,-10.872 c 0.177002,-0.161011 11.09,8.60398 10.905,8.862 0,0.232 0,-4.36001 0,-4.36001 -3.51898,-3.125 -7.27499,-6.43201 -11.248,-9.31 l -2.894,.222 -.317,-3.526 c -1.47,0.08802 -2.93201,0.27201 -4.393,0.46302 l .414,3.516 -3.359,.428 c -3.87201,3.85901 -7.48001,7.73599 -10.742,11.885 0,0 1.018,4.479 0.966003,4.25198 -0.296997,-0.311001 10.2,-11.523 10.444,-11.364 l 1.511,10.794 c -0.125,8.43799 -0.009003,16.918 0.339996,25.384 1.12598,-0.22699 2.26099,-0.401978 3.40399,-0.519989 z "/>
<path id="path149" d="m 158.728,4.739 c 0.149994,2.91598 -2.76599,5.49099 -6.508,5.798 -3.729,0.46399 -7.10901,-1.479 -7.55399,-4.362 -0.445007,-2.879 2.452,-5.645 6.47897,-6.14 4.03601,-0.337 7.43402,1.797 7.58301,4.704 z "/>
</g>
</g>
<path style="fill:#95c048" id="path151" d="m 168.468,53.495 c -29.977,-0.116001 -59.455,12.118 -80.589,33.383 -21.264,21.135 -33.496,50.613 -33.378,80.589 h -5.84101 c -0.127991,-31.489 12.748,-62.524 35.091,-84.718 22.193,-22.343 53.228,-35.219 84.717,-35.09 v 5.836 z "/>
</g>
<g id="g153" externalResourcesRequired="false">
<g id="g155" externalResourcesRequired="false">
<g id="g157">
<path id="path159" d="m 178.431,52.78 c 1.771,-6.87201 3.74899,-13.683 5.931,-20.398 0.574005,7.09302 0.937012,14.16 1.08899,21.191 1.07501,0.125 2.13001,0.372009 3.19601,0.54599 0.561005,-8.40799 0.924988,-16.864 1.09,-25.332 l 1.64,-10.78 c 0.190979,-0.010979 8.92999,10.811 8.664,11.135 -0.052002,0.226992 0.96698,-4.25201 0.96698,-4.25201 -2.69598,-4.039 -5.699,-7.758 -8.90601,-11.649 l -2.883,-.37 .467,-3.509 -4.385,-.553 -.369,3.521 c -1.11902,-0.136991 -2.246,-0.188991 -3.36801,-0.28598 -4.62698,2.82398 -8.99499,6.01099 -13.095,9.16898 0,0 0,4.59302 0,4.36001 -0.212982,-0.317989 12.487,-8.90301 12.694,-8.72601 l -.904,10.867 c -1.98502,8.25101 -3.741,16.521 -5.268,24.8 l 3.44,.266 z "/>
<path id="path161" d="m 195.141,6.637 c -0.490997,2.83499 -3.89999,4.68201 -7.634,4.25299 -3.72101,-0.539001 -6.60599,-2.98099 -6.40201,-5.92999 0.197998,-2.868 3.647,-5.12799 7.66501,-4.555 4.03,0.46599 6.87302,3.323 6.371,6.232 z "/>
</g>
<g id="g163">
<path id="path165" d="m 203.692,57.823 c 3.23898,-6.25 6.686,-12.438 10.334,-18.554 -1.00299,6.97601 -2.26199,14.024 -3.69699,20.93 l 3.015,1.184 c 2.422,-8.05099 4.655,-16.169 6.70599,-24.368 l 4.012,-10.139 c 0.229004,-0.05801 6.27301,12.55 5.983,12.719 -0.10199,0.208981 1.89499,-3.92701 1.89499,-3.92701 -1.80298,-4.36502 -3.77298,-8.94 -6.104,-13.274 l -2.705,-1.064 1.24,-3.315 c -1.36099,-0.567989 -2.78,-0.979 -4.16898,-1.47199 l -1.147,3.349 -3.209,-1.083 c -5.173,1.82 -10.104,3.76998 -14.838,6.083 0,0 -1.01901,4.47901 -0.96701,4.25199 -0.130005,-0.416988 14.176,-5.94998 14.343,-5.74198 l -3.309,10.39 c -3.76001,7.54101 -7.345,15.306 -10.677,23.047 1.09799,0.32502 2.21899,0.582008 3.29401,0.984009 z "/>
<path id="path167" d="m 230.294,16.6 c -1.13199,2.702 -4.85998,3.70898 -8.39002,2.41199 -3.55899,-1.21198 -5.76199,-4.444 -4.918,-7.232 0.845001,-2.79199 4.65201,-4.018 8.49499,-2.70401 3.81302,1.40003 5.936,4.85001 4.81302,7.52402 z "/>
</g>
<g id="g169">
<path id="path171" d="m 227.169,68.409 c 4.595,-5.431 9.302,-10.631 14.216,-15.764 -2.573,6.63401 -5.30402,13.117 -8.24899,19.541 l 2.644,1.886 c 4.16202,-7.32098 8.16303,-14.76 12.002,-22.312 l 6.17,-8.985 c 0.207977,0.032009 3.33195,13.614 2.96501,13.777 -0.14502,0.181969 2.72199,-3.40802 2.72199,-3.40802 -0.704041,-4.767 -1.716,-9.513 -2.95703,-14.342 l -2.412,-1.616 1.949,-2.955 -3.72,-2.384 -1.866,3.008 c -0.94101,-0.624001 -1.91501,-1.193 -2.897,-1.749 -5.41,0.548012 -10.717,1.47602 -15.796,2.56101 0,0 -1.996,4.13699 -1.89499,3.927 -0.049011,-0.396 15.121,-2.57901 15.238,-2.33899 l -5.547,9.383 c -5.38602,6.569 -10.571,13.255 -15.553,20.052 l 2.986,1.719 z "/>
<path id="path173" d="m 262.305,34.171 c -1.70599,2.38101 -5.52197,2.475 -8.71898,0.494991 -3.13202,-2.07498 -4.62701,-5.60001 -3.177,-8.134 1.444,-2.526 5.49799,-2.98398 8.882,-0.75 3.44696,2.143 4.70398,6.03201 3.01398,8.38901 z "/>
</g>
<g id="g175">
<path id="path177" d="m 247.732,83.995 c 5.63901,-4.22501 11.478,-8.35001 17.387,-12.245 -3.98804,5.90799 -8.12604,11.664 -12.405,17.261 0.768005,0.766998 1.479,1.58301 2.17801,2.41101 5.688,-6.22601 11.272,-12.625 16.644,-19.098 l 8.007,-7.395 c 0.203003,0.065002 0.233948,14.013 -0.160034,14.087 -0.182007,0.144997 3.40802,-2.72101 3.40802,-2.72101 0.388977,-4.81598 0.414001,-9.642 0.292969,-14.637 l -2.003,-2.104 2.556,-2.45 c -1.02899,-1.05103 -2.00201,-2.15802 -3.08099,-3.15802 l -2.487,2.519 -2.446,-2.335 c -5.37897,-0.676022 -10.751,-0.970001 -15.982,-0.986019 0,0 -2.86597,3.58902 -2.72199,3.40802 0.088013,-0.456001 15.335,0.823997 15.392,1.08099 l -7.489,7.919 c -6.70599,5.20599 -13.195,10.518 -19.611,16.09 0.890991,0.725983 1.67398,1.574 2.521,2.353 z "/>
<path id="path179" d="m 289.612,58.368 c -2.14899,1.906 -6.026,1.276 -8.61798,-1.44001 -2.62299,-2.68399 -3.29303,-6.45999 -1.29999,-8.626 1.95196,-2.125 6,-1.66699 8.83099,1.22799 2.79999,2.92701 3.29901,6.875 1.08697,8.83802 z "/>
</g>
<g id="g181">
<path id="path183" d="m 264.363,103.733 c 6.42804,-2.868 12.9771,-5.561 19.64,-8.07198 -5.13501,4.837 -10.49,9.55798 -15.924,14.077 l 1.623,2.81 c 6.90301,-4.793 13.713,-9.763 20.424,-14.906 l 9.448,-5.434 c 0.213013,0.096008 -2.90198,13.73 -3.23401,13.682 -0.208984,0.100983 3.927,-1.89502 3.927,-1.89502 1.31,-4.54199 2.60504,-9.34598 3.48505,-14.191 l -1.448,-2.515 3.035,-1.822 c -0.729004,-1.28101 -1.56598,-2.49403 -2.34699,-3.74302 l -2.983,1.905 -1.828,-2.847 c -5.17999,-1.79602 -10.263,-3.33102 -15.391,-4.48601 0,0 -3.58997,2.86602 -3.40802,2.721 0.157043,-0.401001 14.7791,4.19101 14.793,4.44698 l -9.058,6.063 c -7.66699,3.57599 -15.287,7.39899 -22.726,11.379 0.650024,0.946991 1.37201,1.84601 1.97199,2.827 z "/>
<path id="path185" d="m 310.852,88.048 c -2.57501,1.414 -6.10199,-0.130013 -8.06598,-3.32999 -2.02698,-3.16303 -1.71698,-7.07602 0.658997,-8.716 2.422,-1.67102 6.14002,-0.244995 8.32398,3.17099 2.12103,3.45499 1.61902,7.48599 -0.916992,8.875 z "/>
</g>
<g id="g187">
<path id="path189" d="m 276.144,126.646 c 6.97504,-1.38901 13.915,-2.53601 20.945,-3.487 -6.14301,3.586 -12.345,6.965 -18.623,10.143 l .877,3.117 c 7.82196,-3.129 15.594,-6.453 23.306,-9.96903 l 10.425,-3.183 c 0.124023,0.161987 -5.88196,12.728 -6.28101,12.627 -0.22699,0.051025 4.25201,-0.96698 4.25201,-0.96698 2.44598,-4.17102 4.57001,-8.504 6.64002,-13.068 -0.247009,-0.937981 -0.593994,-1.84597 -0.893005,-2.76898 l 3.365,-1.097 -1.417,-4.185 -3.334,1.19 c -0.343994,-1.07599 -0.770996,-2.121 -1.18402,-3.172 -4.57098,-2.945 -9.30798,-5.51999 -13.956,-7.833 0,0 -4.13599,1.996 -3.927,1.89503 0.210022,-0.34201 13.438,7.39599 13.38,7.65799 l -10.183,3.889 c -8.30402,1.78699 -16.524,3.79099 -24.652,6.01001 l 1.26,3.201 z "/>
<path id="path191" d="m 324.963,121.745 c -2.80402,0.792999 -5.87299,-1.50699 -7.13202,-5.05099 -1.14899,-3.58202 -0.145996,-7.26603 2.57599,-8.35001 2.69299,-1.07401 6.17304,1.086 7.42004,4.953 1.35498,3.82999 -0.058044,7.65299 -2.86401,8.448 z "/>
</g>
<g id="g193">
<path id="path195" d="m 282.498,151.593 c 7.04401,0.217987 14.121,0.64801 21.222,1.29001 -6.75,2.11798 -13.6429,4.03699 -20.481,5.73798 l .236,3.243 c 8.33704,-1.314 16.594,-2.819 24.878,-4.52499 l 10.871,-.776 c 0.161011,0.177002 -8.604,11.09 -8.862,10.905 -0.231995,0 4.36102,0 4.36102,0 3.12396,-3.51901 6.43195,-7.27499 9.31,-11.249 l -.222,-2.893 3.526,-.317 c -0.088989,-1.47 -0.271973,-2.93198 -0.463989,-4.39298 l -3.516,.415 -.428,-3.359 c -3.85901,-3.87201 -7.73602,-7.48001 -11.886,-10.743 0,0 -4.47894,1.018 -4.25195,0.96701 0.311951,-0.297028 11.523,10.2 11.364,10.444 l -10.795,1.511 c -8.43799,-0.125 -16.918,-0.009003 -25.384,0.339996 0.229004,1.12399 0.403992,2.259 0.521973,3.40201 z "/>
<path id="path197" d="m 331.197,157.727 c -2.91602,0.149017 -5.49103,-2.76599 -5.79804,-6.508 -0.464966,-3.729 1.479,-7.10901 4.362,-7.55399 2.87903,-0.445007 5.64502,2.452 6.14002,6.47897 0.336975,4.03601 -1.79797,7.435 -4.70398,7.58301 z "/>
</g>
</g>
<path style="fill:#95c048" id="path199" d="m 282.44,167.467 c 0.116028,-29.977 -12.117,-59.456 -33.383,-80.589 -21.135,-21.264 -50.613,-33.496 -80.589,-33.378 v -5.84097 c 31.489,-0.128021 62.524,12.748 84.718,35.091 22.343,22.193 35.219,53.228 35.09,84.717 h -5.836 z "/>
</g>
</g>
</g>
<use x="147.932167" y="441.179962" id="svg_56" xlink:href="#svg_55" transform="matrix(0.797765, 0, 0, 0.797765, -67.8169, -304.76)"/>
</g>
</g>
</svg>
